G04 (created by PCBNEW (25-Oct-2014 BZR 4029)-stable) date Tue 06 Oct 2015 12:48:15 PM EDT*
%MOIN*%
G04 Gerber Fmt 3.4, Leading zero omitted, Abs format*
%FSLAX34Y34*%
G01*
G70*
G90*
G04 APERTURE LIST*
%ADD10C,0.00590551*%
%ADD11C,0.0590551*%
%ADD12C,0.0905512*%
G04 APERTURE END LIST*
G54D10*
G54D11*
X71500Y-40000D03*
X70500Y-40000D03*
X69500Y-40000D03*
X72500Y-40000D03*
X73500Y-40000D03*
X74500Y-40000D03*
X71000Y-56500D03*
X71000Y-55500D03*
X71000Y-57500D03*
X71000Y-58500D03*
X72000Y-56500D03*
X72000Y-55500D03*
X72000Y-57500D03*
X72000Y-58500D03*
X73000Y-56500D03*
X73000Y-55500D03*
X73000Y-57500D03*
X73000Y-58500D03*
X74000Y-56500D03*
X74000Y-55500D03*
X74000Y-57500D03*
X74000Y-58500D03*
X75000Y-56500D03*
X75000Y-55500D03*
X75000Y-57500D03*
X75000Y-58500D03*
X76000Y-56500D03*
X76000Y-55500D03*
X76000Y-57500D03*
X76000Y-58500D03*
X77000Y-56500D03*
X77000Y-55500D03*
X77000Y-57500D03*
X77000Y-58500D03*
X79000Y-56500D03*
X79000Y-55500D03*
X79000Y-57500D03*
X79000Y-58500D03*
X81500Y-46000D03*
X80500Y-46000D03*
X82500Y-46000D03*
X83500Y-46000D03*
X81500Y-47000D03*
X80500Y-47000D03*
X82500Y-47000D03*
X83500Y-47000D03*
X81500Y-45000D03*
X80500Y-45000D03*
X82500Y-45000D03*
X83500Y-45000D03*
X81500Y-48000D03*
X80500Y-48000D03*
X82500Y-48000D03*
X83500Y-48000D03*
X81500Y-49000D03*
X80500Y-49000D03*
X82500Y-49000D03*
X83500Y-49000D03*
X81500Y-50000D03*
X80500Y-50000D03*
X82500Y-50000D03*
X83500Y-50000D03*
X81500Y-51000D03*
X80500Y-51000D03*
X82500Y-51000D03*
X83500Y-51000D03*
X81500Y-52000D03*
X80500Y-52000D03*
X82500Y-52000D03*
X83500Y-52000D03*
X81500Y-53000D03*
X80500Y-53000D03*
X82500Y-53000D03*
X83500Y-53000D03*
X81500Y-54000D03*
X80500Y-54000D03*
X82500Y-54000D03*
X83500Y-54000D03*
X78000Y-56500D03*
X78000Y-55500D03*
X78000Y-57500D03*
X78000Y-58500D03*
X80000Y-56500D03*
X80000Y-55500D03*
X80000Y-57500D03*
X80000Y-58500D03*
X69685Y-49318D03*
X69685Y-50318D03*
X69685Y-51318D03*
X69685Y-52318D03*
X69685Y-53318D03*
X69685Y-48318D03*
X69685Y-47318D03*
X69685Y-46318D03*
X69685Y-45318D03*
X69685Y-44318D03*
G54D12*
X83346Y-40275D03*
X83346Y-58110D03*
X69803Y-58110D03*
M02*
