G04 (created by PCBNEW (25-Oct-2014 BZR 4029)-stable) date Tue 06 Oct 2015 12:48:14 PM EDT*
%MOIN*%
G04 Gerber Fmt 3.4, Leading zero omitted, Abs format*
%FSLAX34Y34*%
G01*
G70*
G90*
G04 APERTURE LIST*
%ADD10C,0.00590551*%
%ADD11C,0.0590551*%
%ADD12C,0.0905512*%
%ADD13C,0.035*%
%ADD14C,0.0228346*%
%ADD15C,0.01*%
G04 APERTURE END LIST*
G54D10*
G54D11*
X71500Y-40000D03*
X70500Y-40000D03*
X69500Y-40000D03*
X72500Y-40000D03*
X73500Y-40000D03*
X74500Y-40000D03*
X71000Y-56500D03*
X71000Y-55500D03*
X71000Y-57500D03*
X71000Y-58500D03*
X72000Y-56500D03*
X72000Y-55500D03*
X72000Y-57500D03*
X72000Y-58500D03*
X73000Y-56500D03*
X73000Y-55500D03*
X73000Y-57500D03*
X73000Y-58500D03*
X74000Y-56500D03*
X74000Y-55500D03*
X74000Y-57500D03*
X74000Y-58500D03*
X75000Y-56500D03*
X75000Y-55500D03*
X75000Y-57500D03*
X75000Y-58500D03*
X76000Y-56500D03*
X76000Y-55500D03*
X76000Y-57500D03*
X76000Y-58500D03*
X77000Y-56500D03*
X77000Y-55500D03*
X77000Y-57500D03*
X77000Y-58500D03*
X79000Y-56500D03*
X79000Y-55500D03*
X79000Y-57500D03*
X79000Y-58500D03*
X81500Y-46000D03*
X80500Y-46000D03*
X82500Y-46000D03*
X83500Y-46000D03*
X81500Y-47000D03*
X80500Y-47000D03*
X82500Y-47000D03*
X83500Y-47000D03*
X81500Y-45000D03*
X80500Y-45000D03*
X82500Y-45000D03*
X83500Y-45000D03*
X81500Y-48000D03*
X80500Y-48000D03*
X82500Y-48000D03*
X83500Y-48000D03*
X81500Y-49000D03*
X80500Y-49000D03*
X82500Y-49000D03*
X83500Y-49000D03*
X81500Y-50000D03*
X80500Y-50000D03*
X82500Y-50000D03*
X83500Y-50000D03*
X81500Y-51000D03*
X80500Y-51000D03*
X82500Y-51000D03*
X83500Y-51000D03*
X81500Y-52000D03*
X80500Y-52000D03*
X82500Y-52000D03*
X83500Y-52000D03*
X81500Y-53000D03*
X80500Y-53000D03*
X82500Y-53000D03*
X83500Y-53000D03*
X81500Y-54000D03*
X80500Y-54000D03*
X82500Y-54000D03*
X83500Y-54000D03*
X78000Y-56500D03*
X78000Y-55500D03*
X78000Y-57500D03*
X78000Y-58500D03*
X80000Y-56500D03*
X80000Y-55500D03*
X80000Y-57500D03*
X80000Y-58500D03*
X69685Y-49318D03*
X69685Y-50318D03*
X69685Y-51318D03*
X69685Y-52318D03*
X69685Y-53318D03*
X69685Y-48318D03*
X69685Y-47318D03*
X69685Y-46318D03*
X69685Y-45318D03*
X69685Y-44318D03*
G54D12*
X83346Y-40275D03*
X83346Y-58110D03*
X69803Y-58110D03*
G54D13*
X82755Y-44094D03*
X80787Y-44094D03*
X72362Y-50551D03*
X72755Y-50944D03*
X73700Y-44251D03*
X75905Y-46141D03*
X77401Y-44409D03*
X78267Y-44330D03*
X79685Y-42519D03*
X79763Y-40629D03*
X70393Y-40787D03*
X79527Y-50039D03*
X73700Y-49685D03*
X74094Y-51181D03*
X75196Y-49133D03*
X74251Y-48031D03*
X75354Y-48031D03*
X76692Y-43858D03*
X78976Y-41968D03*
X75354Y-42047D03*
X73622Y-41889D03*
X70551Y-42755D03*
X77637Y-41889D03*
X74960Y-47637D03*
X72047Y-44488D03*
X75472Y-45866D03*
X75157Y-45314D03*
X71929Y-42992D03*
X71220Y-43700D03*
X73700Y-42992D03*
X74566Y-42992D03*
X80275Y-40629D03*
X80275Y-42440D03*
X80944Y-47322D03*
X79370Y-48031D03*
X82598Y-41653D03*
X79842Y-43228D03*
X75039Y-48661D03*
G54D14*
X80787Y-44094D02*
X82755Y-44094D01*
G54D15*
X72755Y-50944D02*
X72362Y-50551D01*
X75905Y-45511D02*
X75905Y-46141D01*
X74488Y-44094D02*
X75905Y-45511D01*
X73858Y-44094D02*
X74488Y-44094D01*
X73700Y-44251D02*
X73858Y-44094D01*
X75905Y-46141D02*
X77401Y-44645D01*
X77401Y-44645D02*
X77401Y-44409D01*
G54D14*
X80500Y-44988D02*
X80500Y-45000D01*
X79842Y-44330D02*
X80500Y-44988D01*
X78267Y-44330D02*
X79842Y-44330D01*
X75000Y-55500D02*
X76000Y-55500D01*
X79763Y-40629D02*
X79763Y-42440D01*
X79763Y-42440D02*
X79685Y-42519D01*
X70551Y-40629D02*
X79763Y-40629D01*
X70393Y-40787D02*
X70551Y-40629D01*
X83011Y-49488D02*
X83500Y-49000D01*
X80078Y-49488D02*
X83011Y-49488D01*
X79527Y-50039D02*
X80078Y-49488D01*
G54D15*
X73700Y-50787D02*
X73700Y-49685D01*
X74094Y-51181D02*
X73700Y-50787D01*
X75354Y-48031D02*
X75354Y-48976D01*
X75354Y-48976D02*
X75196Y-49133D01*
X75354Y-48031D02*
X74251Y-48031D01*
G54D14*
X75354Y-42047D02*
X76692Y-43385D01*
X76692Y-43385D02*
X76692Y-43858D01*
X78503Y-41496D02*
X78976Y-41968D01*
X75905Y-41496D02*
X78503Y-41496D01*
X75354Y-42047D02*
X75354Y-42047D01*
X75354Y-42047D02*
X75905Y-41496D01*
X71417Y-41889D02*
X73622Y-41889D01*
X70551Y-42755D02*
X71417Y-41889D01*
G54D15*
X77637Y-44960D02*
X77637Y-41889D01*
X74960Y-47637D02*
X77637Y-44960D01*
X72834Y-44488D02*
X72047Y-44488D01*
X75472Y-45866D02*
X72834Y-44488D01*
X71220Y-43700D02*
X71417Y-43897D01*
X74566Y-44724D02*
X75157Y-45314D01*
X73700Y-44724D02*
X74566Y-44724D01*
X73267Y-44291D02*
X73700Y-44724D01*
X72992Y-44291D02*
X73267Y-44291D01*
X72598Y-43897D02*
X72992Y-44291D01*
X71417Y-43897D02*
X72598Y-43897D01*
G54D14*
X71220Y-43700D02*
X71929Y-42992D01*
G54D15*
X73700Y-42992D02*
X74566Y-42992D01*
X80275Y-42440D02*
X80275Y-40629D01*
X80708Y-47559D02*
X80944Y-47322D01*
X79842Y-47559D02*
X80708Y-47559D01*
X79370Y-48031D02*
X79842Y-47559D01*
X81299Y-42952D02*
X82598Y-41653D01*
X80118Y-42952D02*
X81299Y-42952D01*
X79842Y-43228D02*
X80118Y-42952D01*
X74000Y-57500D02*
X74000Y-57476D01*
X74000Y-57476D02*
X74488Y-56988D01*
X75039Y-48661D02*
X74488Y-49212D01*
X74488Y-49212D02*
X74488Y-56988D01*
X74488Y-56988D02*
X75000Y-57500D01*
G54D10*
G36*
X74576Y-40005D02*
X74505Y-40076D01*
X74500Y-40070D01*
X74494Y-40076D01*
X74423Y-40005D01*
X74429Y-40000D01*
X74423Y-39994D01*
X74494Y-39923D01*
X74500Y-39929D01*
X74505Y-39923D01*
X74576Y-39994D01*
X74570Y-40000D01*
X74576Y-40005D01*
X74576Y-40005D01*
G37*
G54D15*
X74576Y-40005D02*
X74505Y-40076D01*
X74500Y-40070D01*
X74494Y-40076D01*
X74423Y-40005D01*
X74429Y-40000D01*
X74423Y-39994D01*
X74494Y-39923D01*
X74500Y-39929D01*
X74505Y-39923D01*
X74576Y-39994D01*
X74570Y-40000D01*
X74576Y-40005D01*
G54D10*
G36*
X83982Y-57422D02*
X83877Y-57317D01*
X83811Y-57290D01*
X83811Y-54382D01*
X83500Y-54070D01*
X83429Y-54141D01*
X83429Y-54000D01*
X83117Y-53688D01*
X83022Y-53714D01*
X82999Y-53780D01*
X82962Y-53691D01*
X82809Y-53538D01*
X82717Y-53500D01*
X82808Y-53462D01*
X82961Y-53309D01*
X82997Y-53224D01*
X83022Y-53285D01*
X83117Y-53311D01*
X83429Y-53000D01*
X83117Y-52688D01*
X83022Y-52714D01*
X82999Y-52780D01*
X82962Y-52691D01*
X82809Y-52538D01*
X82717Y-52500D01*
X82808Y-52462D01*
X82961Y-52309D01*
X82997Y-52224D01*
X83022Y-52285D01*
X83117Y-52311D01*
X83429Y-52000D01*
X83117Y-51688D01*
X83022Y-51714D01*
X82999Y-51780D01*
X82962Y-51691D01*
X82809Y-51538D01*
X82717Y-51500D01*
X82808Y-51462D01*
X82961Y-51309D01*
X82997Y-51224D01*
X83022Y-51285D01*
X83117Y-51311D01*
X83429Y-51000D01*
X83117Y-50688D01*
X83022Y-50714D01*
X82999Y-50780D01*
X82962Y-50691D01*
X82809Y-50538D01*
X82717Y-50500D01*
X82808Y-50462D01*
X82961Y-50309D01*
X82997Y-50224D01*
X83022Y-50285D01*
X83117Y-50311D01*
X83429Y-50000D01*
X83117Y-49688D01*
X83022Y-49714D01*
X82999Y-49780D01*
X82962Y-49691D01*
X82809Y-49538D01*
X82717Y-49500D01*
X82808Y-49462D01*
X82961Y-49309D01*
X82997Y-49224D01*
X83022Y-49285D01*
X83117Y-49311D01*
X83429Y-49000D01*
X83117Y-48688D01*
X83022Y-48714D01*
X82999Y-48780D01*
X82962Y-48691D01*
X82809Y-48538D01*
X82717Y-48500D01*
X82808Y-48462D01*
X82961Y-48309D01*
X82997Y-48224D01*
X83022Y-48285D01*
X83117Y-48311D01*
X83429Y-48000D01*
X83117Y-47688D01*
X83022Y-47714D01*
X82999Y-47780D01*
X82962Y-47691D01*
X82809Y-47538D01*
X82717Y-47500D01*
X82808Y-47462D01*
X82961Y-47309D01*
X82997Y-47224D01*
X83022Y-47285D01*
X83117Y-47311D01*
X83429Y-47000D01*
X83117Y-46688D01*
X83022Y-46714D01*
X82999Y-46780D01*
X82962Y-46691D01*
X82809Y-46538D01*
X82717Y-46500D01*
X82808Y-46462D01*
X82961Y-46309D01*
X82997Y-46224D01*
X83022Y-46285D01*
X83117Y-46311D01*
X83429Y-46000D01*
X83117Y-45688D01*
X83022Y-45714D01*
X82999Y-45780D01*
X82962Y-45691D01*
X82809Y-45538D01*
X82717Y-45500D01*
X82808Y-45462D01*
X82961Y-45309D01*
X82997Y-45224D01*
X83022Y-45285D01*
X83117Y-45311D01*
X83429Y-45000D01*
X83117Y-44688D01*
X83022Y-44714D01*
X82999Y-44780D01*
X82962Y-44691D01*
X82809Y-44538D01*
X82764Y-44519D01*
X82840Y-44519D01*
X82996Y-44454D01*
X83115Y-44335D01*
X83180Y-44179D01*
X83180Y-44010D01*
X83116Y-43854D01*
X82996Y-43734D01*
X82840Y-43669D01*
X82671Y-43669D01*
X82524Y-43730D01*
X81018Y-43730D01*
X80872Y-43669D01*
X80703Y-43669D01*
X80546Y-43733D01*
X80427Y-43853D01*
X80362Y-44009D01*
X80362Y-44178D01*
X80426Y-44334D01*
X80546Y-44454D01*
X80546Y-44454D01*
X80481Y-44454D01*
X80100Y-44073D01*
X79981Y-43994D01*
X79842Y-43966D01*
X78498Y-43966D01*
X78352Y-43905D01*
X78183Y-43905D01*
X78027Y-43970D01*
X77937Y-44059D01*
X77937Y-42190D01*
X77997Y-42130D01*
X78062Y-41974D01*
X78062Y-41805D01*
X77998Y-41649D01*
X77878Y-41529D01*
X77722Y-41464D01*
X77553Y-41464D01*
X77397Y-41529D01*
X77277Y-41648D01*
X77212Y-41804D01*
X77212Y-41973D01*
X77277Y-42130D01*
X77337Y-42190D01*
X77337Y-43984D01*
X77317Y-43984D01*
X77161Y-44048D01*
X77041Y-44168D01*
X76976Y-44324D01*
X76976Y-44493D01*
X77021Y-44601D01*
X76189Y-45433D01*
X76182Y-45397D01*
X76117Y-45299D01*
X76117Y-45299D01*
X74992Y-44174D01*
X74992Y-42907D01*
X74927Y-42751D01*
X74807Y-42632D01*
X74651Y-42567D01*
X74482Y-42567D01*
X74326Y-42631D01*
X74265Y-42692D01*
X74001Y-42692D01*
X73941Y-42632D01*
X73785Y-42567D01*
X73616Y-42567D01*
X73460Y-42631D01*
X73340Y-42751D01*
X73275Y-42907D01*
X73275Y-43076D01*
X73340Y-43232D01*
X73459Y-43352D01*
X73615Y-43417D01*
X73784Y-43417D01*
X73941Y-43352D01*
X74001Y-43292D01*
X74265Y-43292D01*
X74325Y-43352D01*
X74482Y-43417D01*
X74651Y-43417D01*
X74807Y-43352D01*
X74927Y-43233D01*
X74991Y-43077D01*
X74992Y-42907D01*
X74992Y-44174D01*
X74700Y-43882D01*
X74602Y-43817D01*
X74488Y-43794D01*
X73858Y-43794D01*
X73743Y-43817D01*
X73728Y-43826D01*
X73728Y-43826D01*
X73616Y-43826D01*
X73460Y-43891D01*
X73344Y-44006D01*
X73344Y-44006D01*
X73267Y-43991D01*
X73116Y-43991D01*
X72810Y-43685D01*
X72713Y-43620D01*
X72598Y-43597D01*
X71838Y-43597D01*
X72023Y-43413D01*
X72169Y-43352D01*
X72289Y-43233D01*
X72354Y-43077D01*
X72354Y-42907D01*
X72289Y-42751D01*
X72170Y-42632D01*
X72014Y-42567D01*
X71844Y-42567D01*
X71688Y-42631D01*
X71569Y-42751D01*
X71507Y-42898D01*
X71126Y-43279D01*
X70980Y-43340D01*
X70860Y-43459D01*
X70795Y-43615D01*
X70795Y-43784D01*
X70859Y-43941D01*
X70979Y-44060D01*
X71135Y-44125D01*
X71229Y-44125D01*
X71229Y-44125D01*
X71302Y-44174D01*
X71417Y-44197D01*
X71417Y-44197D01*
X71736Y-44197D01*
X71687Y-44247D01*
X71622Y-44403D01*
X71622Y-44572D01*
X71686Y-44728D01*
X71806Y-44848D01*
X71962Y-44913D01*
X72131Y-44913D01*
X72287Y-44848D01*
X72348Y-44788D01*
X72760Y-44788D01*
X75064Y-45992D01*
X75111Y-46106D01*
X75231Y-46226D01*
X75387Y-46291D01*
X75507Y-46291D01*
X75545Y-46382D01*
X75664Y-46501D01*
X75670Y-46504D01*
X74961Y-47212D01*
X74876Y-47212D01*
X74720Y-47277D01*
X74600Y-47396D01*
X74535Y-47552D01*
X74535Y-47721D01*
X74600Y-47878D01*
X74719Y-47997D01*
X74875Y-48062D01*
X75044Y-48062D01*
X75201Y-47998D01*
X75320Y-47878D01*
X75385Y-47722D01*
X75385Y-47637D01*
X77849Y-45172D01*
X77849Y-45172D01*
X77914Y-45075D01*
X77937Y-44960D01*
X77937Y-44960D01*
X77937Y-44601D01*
X78026Y-44690D01*
X78182Y-44755D01*
X78351Y-44755D01*
X78499Y-44694D01*
X79691Y-44694D01*
X79954Y-44957D01*
X79954Y-45107D01*
X80037Y-45308D01*
X80190Y-45461D01*
X80282Y-45499D01*
X80191Y-45537D01*
X80038Y-45690D01*
X79954Y-45891D01*
X79954Y-46107D01*
X80037Y-46308D01*
X80190Y-46461D01*
X80282Y-46499D01*
X80191Y-46537D01*
X80038Y-46690D01*
X79954Y-46891D01*
X79954Y-47107D01*
X80017Y-47259D01*
X79842Y-47259D01*
X79727Y-47281D01*
X79630Y-47346D01*
X79370Y-47606D01*
X79285Y-47606D01*
X79129Y-47670D01*
X79009Y-47790D01*
X78945Y-47946D01*
X78945Y-48115D01*
X79009Y-48271D01*
X79129Y-48391D01*
X79285Y-48456D01*
X79454Y-48456D01*
X79610Y-48392D01*
X79730Y-48272D01*
X79795Y-48116D01*
X79795Y-48030D01*
X79966Y-47859D01*
X79968Y-47859D01*
X79954Y-47891D01*
X79954Y-48107D01*
X80037Y-48308D01*
X80190Y-48461D01*
X80282Y-48499D01*
X80191Y-48537D01*
X80038Y-48690D01*
X79954Y-48891D01*
X79954Y-49107D01*
X80037Y-49308D01*
X80190Y-49461D01*
X80282Y-49499D01*
X80191Y-49537D01*
X80038Y-49690D01*
X79954Y-49891D01*
X79954Y-50107D01*
X80037Y-50308D01*
X80190Y-50461D01*
X80282Y-50499D01*
X80191Y-50537D01*
X80038Y-50690D01*
X79954Y-50891D01*
X79954Y-51107D01*
X80037Y-51308D01*
X80190Y-51461D01*
X80282Y-51499D01*
X80191Y-51537D01*
X80038Y-51690D01*
X79954Y-51891D01*
X79954Y-52107D01*
X80037Y-52308D01*
X80190Y-52461D01*
X80282Y-52499D01*
X80191Y-52537D01*
X80038Y-52690D01*
X79954Y-52891D01*
X79954Y-53107D01*
X80037Y-53308D01*
X80190Y-53461D01*
X80282Y-53499D01*
X80191Y-53537D01*
X80038Y-53690D01*
X79954Y-53891D01*
X79954Y-54107D01*
X80037Y-54308D01*
X80190Y-54461D01*
X80391Y-54545D01*
X80607Y-54545D01*
X80808Y-54462D01*
X80961Y-54309D01*
X80999Y-54217D01*
X81037Y-54308D01*
X81190Y-54461D01*
X81391Y-54545D01*
X81607Y-54545D01*
X81808Y-54462D01*
X81961Y-54309D01*
X81999Y-54217D01*
X82037Y-54308D01*
X82190Y-54461D01*
X82391Y-54545D01*
X82607Y-54545D01*
X82808Y-54462D01*
X82961Y-54309D01*
X82997Y-54224D01*
X83022Y-54285D01*
X83117Y-54311D01*
X83429Y-54000D01*
X83429Y-54141D01*
X83188Y-54382D01*
X83214Y-54477D01*
X83419Y-54550D01*
X83636Y-54539D01*
X83785Y-54477D01*
X83811Y-54382D01*
X83811Y-57290D01*
X83533Y-57174D01*
X83161Y-57174D01*
X82817Y-57316D01*
X82553Y-57579D01*
X82410Y-57923D01*
X82410Y-58295D01*
X82552Y-58639D01*
X82698Y-58785D01*
X80475Y-58785D01*
X80477Y-58785D01*
X80550Y-58580D01*
X80539Y-58363D01*
X80477Y-58214D01*
X80382Y-58188D01*
X80070Y-58500D01*
X80076Y-58505D01*
X80005Y-58576D01*
X80000Y-58570D01*
X79994Y-58576D01*
X79923Y-58505D01*
X79929Y-58500D01*
X79617Y-58188D01*
X79522Y-58214D01*
X79501Y-58273D01*
X79477Y-58214D01*
X79382Y-58188D01*
X79070Y-58500D01*
X79076Y-58505D01*
X79005Y-58576D01*
X79000Y-58570D01*
X78994Y-58576D01*
X78923Y-58505D01*
X78929Y-58500D01*
X78617Y-58188D01*
X78522Y-58214D01*
X78501Y-58273D01*
X78477Y-58214D01*
X78382Y-58188D01*
X78070Y-58500D01*
X78076Y-58505D01*
X78005Y-58576D01*
X78000Y-58570D01*
X77994Y-58576D01*
X77923Y-58505D01*
X77929Y-58500D01*
X77617Y-58188D01*
X77522Y-58214D01*
X77501Y-58273D01*
X77477Y-58214D01*
X77382Y-58188D01*
X77070Y-58500D01*
X77076Y-58505D01*
X77005Y-58576D01*
X77000Y-58570D01*
X76994Y-58576D01*
X76923Y-58505D01*
X76929Y-58500D01*
X76617Y-58188D01*
X76522Y-58214D01*
X76501Y-58273D01*
X76477Y-58214D01*
X76382Y-58188D01*
X76070Y-58500D01*
X76076Y-58505D01*
X76005Y-58576D01*
X76000Y-58570D01*
X75994Y-58576D01*
X75923Y-58505D01*
X75929Y-58500D01*
X75617Y-58188D01*
X75522Y-58214D01*
X75501Y-58273D01*
X75477Y-58214D01*
X75382Y-58188D01*
X75070Y-58500D01*
X75076Y-58505D01*
X75005Y-58576D01*
X75000Y-58570D01*
X74994Y-58576D01*
X74923Y-58505D01*
X74929Y-58500D01*
X74617Y-58188D01*
X74522Y-58214D01*
X74501Y-58273D01*
X74477Y-58214D01*
X74382Y-58188D01*
X74070Y-58500D01*
X74076Y-58505D01*
X74005Y-58576D01*
X74000Y-58570D01*
X73994Y-58576D01*
X73923Y-58505D01*
X73929Y-58500D01*
X73617Y-58188D01*
X73522Y-58214D01*
X73501Y-58273D01*
X73477Y-58214D01*
X73382Y-58188D01*
X73070Y-58500D01*
X73076Y-58505D01*
X73005Y-58576D01*
X73000Y-58570D01*
X72994Y-58576D01*
X72923Y-58505D01*
X72929Y-58500D01*
X72617Y-58188D01*
X72522Y-58214D01*
X72501Y-58273D01*
X72477Y-58214D01*
X72382Y-58188D01*
X72070Y-58500D01*
X72076Y-58505D01*
X72005Y-58576D01*
X72000Y-58570D01*
X71994Y-58576D01*
X71923Y-58505D01*
X71929Y-58500D01*
X71617Y-58188D01*
X71522Y-58214D01*
X71501Y-58273D01*
X71477Y-58214D01*
X71382Y-58188D01*
X71070Y-58500D01*
X71076Y-58505D01*
X71005Y-58576D01*
X71000Y-58570D01*
X70994Y-58576D01*
X70923Y-58505D01*
X70929Y-58500D01*
X70923Y-58494D01*
X70994Y-58423D01*
X71000Y-58429D01*
X71311Y-58117D01*
X71285Y-58022D01*
X71219Y-57999D01*
X71308Y-57962D01*
X71461Y-57809D01*
X71499Y-57717D01*
X71537Y-57808D01*
X71690Y-57961D01*
X71775Y-57997D01*
X71714Y-58022D01*
X71688Y-58117D01*
X72000Y-58429D01*
X72311Y-58117D01*
X72285Y-58022D01*
X72219Y-57999D01*
X72308Y-57962D01*
X72461Y-57809D01*
X72499Y-57717D01*
X72537Y-57808D01*
X72690Y-57961D01*
X72775Y-57997D01*
X72714Y-58022D01*
X72688Y-58117D01*
X73000Y-58429D01*
X73311Y-58117D01*
X73285Y-58022D01*
X73219Y-57999D01*
X73308Y-57962D01*
X73461Y-57809D01*
X73499Y-57717D01*
X73537Y-57808D01*
X73690Y-57961D01*
X73775Y-57997D01*
X73714Y-58022D01*
X73688Y-58117D01*
X74000Y-58429D01*
X74311Y-58117D01*
X74285Y-58022D01*
X74219Y-57999D01*
X74308Y-57962D01*
X74461Y-57809D01*
X74499Y-57717D01*
X74537Y-57808D01*
X74690Y-57961D01*
X74775Y-57997D01*
X74714Y-58022D01*
X74688Y-58117D01*
X75000Y-58429D01*
X75311Y-58117D01*
X75285Y-58022D01*
X75219Y-57999D01*
X75308Y-57962D01*
X75461Y-57809D01*
X75499Y-57717D01*
X75537Y-57808D01*
X75690Y-57961D01*
X75775Y-57997D01*
X75714Y-58022D01*
X75688Y-58117D01*
X76000Y-58429D01*
X76311Y-58117D01*
X76285Y-58022D01*
X76219Y-57999D01*
X76308Y-57962D01*
X76461Y-57809D01*
X76499Y-57717D01*
X76537Y-57808D01*
X76690Y-57961D01*
X76775Y-57997D01*
X76714Y-58022D01*
X76688Y-58117D01*
X77000Y-58429D01*
X77311Y-58117D01*
X77285Y-58022D01*
X77219Y-57999D01*
X77308Y-57962D01*
X77461Y-57809D01*
X77499Y-57717D01*
X77537Y-57808D01*
X77690Y-57961D01*
X77775Y-57997D01*
X77714Y-58022D01*
X77688Y-58117D01*
X78000Y-58429D01*
X78311Y-58117D01*
X78285Y-58022D01*
X78219Y-57999D01*
X78308Y-57962D01*
X78461Y-57809D01*
X78499Y-57717D01*
X78537Y-57808D01*
X78690Y-57961D01*
X78775Y-57997D01*
X78714Y-58022D01*
X78688Y-58117D01*
X79000Y-58429D01*
X79311Y-58117D01*
X79285Y-58022D01*
X79219Y-57999D01*
X79308Y-57962D01*
X79461Y-57809D01*
X79499Y-57717D01*
X79537Y-57808D01*
X79690Y-57961D01*
X79775Y-57997D01*
X79714Y-58022D01*
X79688Y-58117D01*
X80000Y-58429D01*
X80311Y-58117D01*
X80285Y-58022D01*
X80219Y-57999D01*
X80308Y-57962D01*
X80461Y-57809D01*
X80545Y-57608D01*
X80545Y-57392D01*
X80462Y-57191D01*
X80309Y-57038D01*
X80217Y-57000D01*
X80308Y-56962D01*
X80461Y-56809D01*
X80545Y-56608D01*
X80545Y-56392D01*
X80462Y-56191D01*
X80309Y-56038D01*
X80217Y-56000D01*
X80308Y-55962D01*
X80461Y-55809D01*
X80545Y-55608D01*
X80545Y-55392D01*
X80462Y-55191D01*
X80309Y-55038D01*
X80108Y-54954D01*
X79892Y-54954D01*
X79691Y-55037D01*
X79538Y-55190D01*
X79500Y-55282D01*
X79462Y-55191D01*
X79309Y-55038D01*
X79108Y-54954D01*
X78892Y-54954D01*
X78691Y-55037D01*
X78538Y-55190D01*
X78500Y-55282D01*
X78462Y-55191D01*
X78309Y-55038D01*
X78108Y-54954D01*
X77892Y-54954D01*
X77691Y-55037D01*
X77538Y-55190D01*
X77500Y-55282D01*
X77462Y-55191D01*
X77309Y-55038D01*
X77108Y-54954D01*
X76892Y-54954D01*
X76691Y-55037D01*
X76538Y-55190D01*
X76500Y-55282D01*
X76462Y-55191D01*
X76309Y-55038D01*
X76108Y-54954D01*
X75892Y-54954D01*
X75691Y-55037D01*
X75592Y-55135D01*
X75406Y-55135D01*
X75309Y-55038D01*
X75108Y-54954D01*
X74892Y-54954D01*
X74788Y-54997D01*
X74788Y-49336D01*
X75038Y-49086D01*
X75123Y-49086D01*
X75279Y-49021D01*
X75399Y-48902D01*
X75464Y-48746D01*
X75464Y-48577D01*
X75399Y-48420D01*
X75280Y-48301D01*
X75124Y-48236D01*
X74955Y-48236D01*
X74798Y-48300D01*
X74679Y-48420D01*
X74614Y-48576D01*
X74614Y-48662D01*
X74276Y-49000D01*
X74211Y-49097D01*
X74188Y-49212D01*
X74188Y-54987D01*
X74108Y-54954D01*
X73892Y-54954D01*
X73691Y-55037D01*
X73538Y-55190D01*
X73500Y-55282D01*
X73462Y-55191D01*
X73309Y-55038D01*
X73180Y-54984D01*
X73180Y-50860D01*
X73116Y-50704D01*
X72996Y-50584D01*
X72840Y-50519D01*
X72787Y-50519D01*
X72787Y-50467D01*
X72722Y-50310D01*
X72603Y-50191D01*
X72447Y-50126D01*
X72278Y-50126D01*
X72121Y-50190D01*
X72002Y-50310D01*
X71937Y-50466D01*
X71937Y-50635D01*
X72001Y-50791D01*
X72121Y-50911D01*
X72277Y-50976D01*
X72330Y-50976D01*
X72330Y-51029D01*
X72395Y-51185D01*
X72514Y-51304D01*
X72670Y-51369D01*
X72840Y-51369D01*
X72996Y-51305D01*
X73115Y-51185D01*
X73180Y-51029D01*
X73180Y-50860D01*
X73180Y-54984D01*
X73108Y-54954D01*
X72892Y-54954D01*
X72691Y-55037D01*
X72538Y-55190D01*
X72500Y-55282D01*
X72462Y-55191D01*
X72309Y-55038D01*
X72108Y-54954D01*
X71892Y-54954D01*
X71691Y-55037D01*
X71538Y-55190D01*
X71500Y-55282D01*
X71462Y-55191D01*
X71309Y-55038D01*
X71108Y-54954D01*
X70892Y-54954D01*
X70691Y-55037D01*
X70538Y-55190D01*
X70454Y-55391D01*
X70454Y-55607D01*
X70537Y-55808D01*
X70690Y-55961D01*
X70782Y-55999D01*
X70691Y-56037D01*
X70538Y-56190D01*
X70454Y-56391D01*
X70454Y-56607D01*
X70537Y-56808D01*
X70690Y-56961D01*
X70782Y-56999D01*
X70691Y-57037D01*
X70538Y-57190D01*
X70454Y-57391D01*
X70454Y-57438D01*
X70333Y-57317D01*
X69990Y-57174D01*
X69617Y-57174D01*
X69273Y-57316D01*
X69167Y-57422D01*
X69167Y-53493D01*
X69222Y-53627D01*
X69375Y-53780D01*
X69576Y-53864D01*
X69793Y-53864D01*
X69993Y-53781D01*
X70147Y-53628D01*
X70230Y-53427D01*
X70230Y-53210D01*
X70147Y-53010D01*
X69994Y-52856D01*
X69902Y-52818D01*
X69993Y-52781D01*
X70147Y-52628D01*
X70230Y-52427D01*
X70230Y-52210D01*
X70147Y-52010D01*
X69994Y-51856D01*
X69902Y-51818D01*
X69993Y-51781D01*
X70147Y-51628D01*
X70230Y-51427D01*
X70230Y-51210D01*
X70147Y-51010D01*
X69994Y-50856D01*
X69902Y-50818D01*
X69993Y-50781D01*
X70147Y-50628D01*
X70230Y-50427D01*
X70230Y-50210D01*
X70147Y-50010D01*
X69994Y-49856D01*
X69902Y-49818D01*
X69993Y-49781D01*
X70147Y-49628D01*
X70230Y-49427D01*
X70230Y-49210D01*
X70147Y-49010D01*
X69994Y-48856D01*
X69902Y-48818D01*
X69993Y-48781D01*
X70147Y-48628D01*
X70230Y-48427D01*
X70230Y-48210D01*
X70147Y-48010D01*
X69994Y-47856D01*
X69902Y-47818D01*
X69993Y-47781D01*
X70147Y-47628D01*
X70230Y-47427D01*
X70230Y-47210D01*
X70147Y-47010D01*
X69994Y-46856D01*
X69902Y-46818D01*
X69993Y-46781D01*
X70147Y-46628D01*
X70230Y-46427D01*
X70230Y-46210D01*
X70147Y-46010D01*
X69994Y-45856D01*
X69902Y-45818D01*
X69993Y-45781D01*
X70147Y-45628D01*
X70230Y-45427D01*
X70230Y-45210D01*
X70147Y-45010D01*
X69994Y-44856D01*
X69902Y-44818D01*
X69993Y-44781D01*
X70147Y-44628D01*
X70230Y-44427D01*
X70230Y-44210D01*
X70147Y-44010D01*
X69994Y-43856D01*
X69793Y-43773D01*
X69577Y-43773D01*
X69376Y-43856D01*
X69223Y-44009D01*
X69167Y-44143D01*
X69167Y-40438D01*
X69190Y-40461D01*
X69391Y-40545D01*
X69607Y-40545D01*
X69808Y-40462D01*
X69961Y-40309D01*
X69999Y-40217D01*
X70037Y-40308D01*
X70154Y-40426D01*
X70153Y-40426D01*
X70033Y-40546D01*
X69968Y-40702D01*
X69968Y-40871D01*
X70033Y-41027D01*
X70152Y-41147D01*
X70308Y-41212D01*
X70477Y-41212D01*
X70634Y-41147D01*
X70753Y-41028D01*
X70768Y-40994D01*
X79399Y-40994D01*
X79399Y-42204D01*
X79324Y-42278D01*
X79260Y-42434D01*
X79259Y-42603D01*
X79324Y-42760D01*
X79443Y-42879D01*
X79547Y-42922D01*
X79482Y-42987D01*
X79417Y-43143D01*
X79417Y-43312D01*
X79482Y-43468D01*
X79601Y-43588D01*
X79757Y-43653D01*
X79926Y-43653D01*
X80082Y-43588D01*
X80202Y-43469D01*
X80267Y-43313D01*
X80267Y-43252D01*
X81299Y-43252D01*
X81299Y-43252D01*
X81414Y-43229D01*
X81414Y-43229D01*
X81511Y-43164D01*
X82597Y-42078D01*
X82682Y-42078D01*
X82838Y-42014D01*
X82958Y-41894D01*
X83023Y-41738D01*
X83023Y-41569D01*
X82958Y-41413D01*
X82839Y-41293D01*
X82683Y-41228D01*
X82514Y-41228D01*
X82357Y-41293D01*
X82238Y-41412D01*
X82173Y-41568D01*
X82173Y-41654D01*
X81174Y-42652D01*
X80647Y-42652D01*
X80700Y-42525D01*
X80700Y-42356D01*
X80636Y-42200D01*
X80575Y-42139D01*
X80575Y-40930D01*
X80635Y-40870D01*
X80700Y-40714D01*
X80700Y-40545D01*
X80636Y-40389D01*
X80516Y-40269D01*
X80360Y-40204D01*
X80191Y-40204D01*
X80035Y-40269D01*
X80019Y-40284D01*
X80004Y-40269D01*
X79848Y-40204D01*
X79679Y-40204D01*
X79532Y-40265D01*
X74984Y-40265D01*
X75050Y-40080D01*
X75039Y-39863D01*
X74977Y-39714D01*
X74882Y-39688D01*
X74927Y-39642D01*
X74924Y-39639D01*
X82658Y-39639D01*
X82553Y-39744D01*
X82410Y-40088D01*
X82410Y-40460D01*
X82552Y-40805D01*
X82815Y-41068D01*
X83159Y-41211D01*
X83531Y-41211D01*
X83875Y-41069D01*
X83982Y-40963D01*
X83982Y-44726D01*
X83977Y-44714D01*
X83882Y-44688D01*
X83811Y-44758D01*
X83811Y-44617D01*
X83785Y-44522D01*
X83580Y-44449D01*
X83363Y-44460D01*
X83214Y-44522D01*
X83188Y-44617D01*
X83500Y-44929D01*
X83811Y-44617D01*
X83811Y-44758D01*
X83570Y-45000D01*
X83882Y-45311D01*
X83977Y-45285D01*
X83982Y-45271D01*
X83982Y-45726D01*
X83977Y-45714D01*
X83882Y-45688D01*
X83811Y-45758D01*
X83811Y-45617D01*
X83785Y-45522D01*
X83726Y-45501D01*
X83785Y-45477D01*
X83811Y-45382D01*
X83500Y-45070D01*
X83188Y-45382D01*
X83214Y-45477D01*
X83273Y-45498D01*
X83214Y-45522D01*
X83188Y-45617D01*
X83500Y-45929D01*
X83811Y-45617D01*
X83811Y-45758D01*
X83570Y-46000D01*
X83882Y-46311D01*
X83977Y-46285D01*
X83982Y-46271D01*
X83982Y-46726D01*
X83977Y-46714D01*
X83882Y-46688D01*
X83811Y-46758D01*
X83811Y-46617D01*
X83785Y-46522D01*
X83726Y-46501D01*
X83785Y-46477D01*
X83811Y-46382D01*
X83500Y-46070D01*
X83188Y-46382D01*
X83214Y-46477D01*
X83273Y-46498D01*
X83214Y-46522D01*
X83188Y-46617D01*
X83500Y-46929D01*
X83811Y-46617D01*
X83811Y-46758D01*
X83570Y-47000D01*
X83882Y-47311D01*
X83977Y-47285D01*
X83982Y-47271D01*
X83982Y-47726D01*
X83977Y-47714D01*
X83882Y-47688D01*
X83811Y-47758D01*
X83811Y-47617D01*
X83785Y-47522D01*
X83726Y-47501D01*
X83785Y-47477D01*
X83811Y-47382D01*
X83500Y-47070D01*
X83188Y-47382D01*
X83214Y-47477D01*
X83273Y-47498D01*
X83214Y-47522D01*
X83188Y-47617D01*
X83500Y-47929D01*
X83811Y-47617D01*
X83811Y-47758D01*
X83570Y-48000D01*
X83882Y-48311D01*
X83977Y-48285D01*
X83982Y-48271D01*
X83982Y-48726D01*
X83977Y-48714D01*
X83882Y-48688D01*
X83811Y-48758D01*
X83811Y-48617D01*
X83785Y-48522D01*
X83726Y-48501D01*
X83785Y-48477D01*
X83811Y-48382D01*
X83500Y-48070D01*
X83188Y-48382D01*
X83214Y-48477D01*
X83273Y-48498D01*
X83214Y-48522D01*
X83188Y-48617D01*
X83500Y-48929D01*
X83811Y-48617D01*
X83811Y-48758D01*
X83570Y-49000D01*
X83882Y-49311D01*
X83977Y-49285D01*
X83982Y-49271D01*
X83982Y-49726D01*
X83977Y-49714D01*
X83882Y-49688D01*
X83811Y-49758D01*
X83811Y-49617D01*
X83785Y-49522D01*
X83726Y-49501D01*
X83785Y-49477D01*
X83811Y-49382D01*
X83500Y-49070D01*
X83188Y-49382D01*
X83214Y-49477D01*
X83273Y-49498D01*
X83214Y-49522D01*
X83188Y-49617D01*
X83500Y-49929D01*
X83811Y-49617D01*
X83811Y-49758D01*
X83570Y-50000D01*
X83882Y-50311D01*
X83977Y-50285D01*
X83982Y-50271D01*
X83982Y-50726D01*
X83977Y-50714D01*
X83882Y-50688D01*
X83811Y-50758D01*
X83811Y-50617D01*
X83785Y-50522D01*
X83726Y-50501D01*
X83785Y-50477D01*
X83811Y-50382D01*
X83500Y-50070D01*
X83188Y-50382D01*
X83214Y-50477D01*
X83273Y-50498D01*
X83214Y-50522D01*
X83188Y-50617D01*
X83500Y-50929D01*
X83811Y-50617D01*
X83811Y-50758D01*
X83570Y-51000D01*
X83882Y-51311D01*
X83977Y-51285D01*
X83982Y-51271D01*
X83982Y-51726D01*
X83977Y-51714D01*
X83882Y-51688D01*
X83811Y-51758D01*
X83811Y-51617D01*
X83785Y-51522D01*
X83726Y-51501D01*
X83785Y-51477D01*
X83811Y-51382D01*
X83500Y-51070D01*
X83188Y-51382D01*
X83214Y-51477D01*
X83273Y-51498D01*
X83214Y-51522D01*
X83188Y-51617D01*
X83500Y-51929D01*
X83811Y-51617D01*
X83811Y-51758D01*
X83570Y-52000D01*
X83882Y-52311D01*
X83977Y-52285D01*
X83982Y-52271D01*
X83982Y-52726D01*
X83977Y-52714D01*
X83882Y-52688D01*
X83811Y-52758D01*
X83811Y-52617D01*
X83785Y-52522D01*
X83726Y-52501D01*
X83785Y-52477D01*
X83811Y-52382D01*
X83500Y-52070D01*
X83188Y-52382D01*
X83214Y-52477D01*
X83273Y-52498D01*
X83214Y-52522D01*
X83188Y-52617D01*
X83500Y-52929D01*
X83811Y-52617D01*
X83811Y-52758D01*
X83570Y-53000D01*
X83882Y-53311D01*
X83977Y-53285D01*
X83982Y-53271D01*
X83982Y-53726D01*
X83977Y-53714D01*
X83882Y-53688D01*
X83811Y-53758D01*
X83811Y-53617D01*
X83785Y-53522D01*
X83726Y-53501D01*
X83785Y-53477D01*
X83811Y-53382D01*
X83500Y-53070D01*
X83188Y-53382D01*
X83214Y-53477D01*
X83273Y-53498D01*
X83214Y-53522D01*
X83188Y-53617D01*
X83500Y-53929D01*
X83811Y-53617D01*
X83811Y-53758D01*
X83570Y-54000D01*
X83882Y-54311D01*
X83977Y-54285D01*
X83982Y-54271D01*
X83982Y-57422D01*
X83982Y-57422D01*
G37*
G54D15*
X83982Y-57422D02*
X83877Y-57317D01*
X83811Y-57290D01*
X83811Y-54382D01*
X83500Y-54070D01*
X83429Y-54141D01*
X83429Y-54000D01*
X83117Y-53688D01*
X83022Y-53714D01*
X82999Y-53780D01*
X82962Y-53691D01*
X82809Y-53538D01*
X82717Y-53500D01*
X82808Y-53462D01*
X82961Y-53309D01*
X82997Y-53224D01*
X83022Y-53285D01*
X83117Y-53311D01*
X83429Y-53000D01*
X83117Y-52688D01*
X83022Y-52714D01*
X82999Y-52780D01*
X82962Y-52691D01*
X82809Y-52538D01*
X82717Y-52500D01*
X82808Y-52462D01*
X82961Y-52309D01*
X82997Y-52224D01*
X83022Y-52285D01*
X83117Y-52311D01*
X83429Y-52000D01*
X83117Y-51688D01*
X83022Y-51714D01*
X82999Y-51780D01*
X82962Y-51691D01*
X82809Y-51538D01*
X82717Y-51500D01*
X82808Y-51462D01*
X82961Y-51309D01*
X82997Y-51224D01*
X83022Y-51285D01*
X83117Y-51311D01*
X83429Y-51000D01*
X83117Y-50688D01*
X83022Y-50714D01*
X82999Y-50780D01*
X82962Y-50691D01*
X82809Y-50538D01*
X82717Y-50500D01*
X82808Y-50462D01*
X82961Y-50309D01*
X82997Y-50224D01*
X83022Y-50285D01*
X83117Y-50311D01*
X83429Y-50000D01*
X83117Y-49688D01*
X83022Y-49714D01*
X82999Y-49780D01*
X82962Y-49691D01*
X82809Y-49538D01*
X82717Y-49500D01*
X82808Y-49462D01*
X82961Y-49309D01*
X82997Y-49224D01*
X83022Y-49285D01*
X83117Y-49311D01*
X83429Y-49000D01*
X83117Y-48688D01*
X83022Y-48714D01*
X82999Y-48780D01*
X82962Y-48691D01*
X82809Y-48538D01*
X82717Y-48500D01*
X82808Y-48462D01*
X82961Y-48309D01*
X82997Y-48224D01*
X83022Y-48285D01*
X83117Y-48311D01*
X83429Y-48000D01*
X83117Y-47688D01*
X83022Y-47714D01*
X82999Y-47780D01*
X82962Y-47691D01*
X82809Y-47538D01*
X82717Y-47500D01*
X82808Y-47462D01*
X82961Y-47309D01*
X82997Y-47224D01*
X83022Y-47285D01*
X83117Y-47311D01*
X83429Y-47000D01*
X83117Y-46688D01*
X83022Y-46714D01*
X82999Y-46780D01*
X82962Y-46691D01*
X82809Y-46538D01*
X82717Y-46500D01*
X82808Y-46462D01*
X82961Y-46309D01*
X82997Y-46224D01*
X83022Y-46285D01*
X83117Y-46311D01*
X83429Y-46000D01*
X83117Y-45688D01*
X83022Y-45714D01*
X82999Y-45780D01*
X82962Y-45691D01*
X82809Y-45538D01*
X82717Y-45500D01*
X82808Y-45462D01*
X82961Y-45309D01*
X82997Y-45224D01*
X83022Y-45285D01*
X83117Y-45311D01*
X83429Y-45000D01*
X83117Y-44688D01*
X83022Y-44714D01*
X82999Y-44780D01*
X82962Y-44691D01*
X82809Y-44538D01*
X82764Y-44519D01*
X82840Y-44519D01*
X82996Y-44454D01*
X83115Y-44335D01*
X83180Y-44179D01*
X83180Y-44010D01*
X83116Y-43854D01*
X82996Y-43734D01*
X82840Y-43669D01*
X82671Y-43669D01*
X82524Y-43730D01*
X81018Y-43730D01*
X80872Y-43669D01*
X80703Y-43669D01*
X80546Y-43733D01*
X80427Y-43853D01*
X80362Y-44009D01*
X80362Y-44178D01*
X80426Y-44334D01*
X80546Y-44454D01*
X80546Y-44454D01*
X80481Y-44454D01*
X80100Y-44073D01*
X79981Y-43994D01*
X79842Y-43966D01*
X78498Y-43966D01*
X78352Y-43905D01*
X78183Y-43905D01*
X78027Y-43970D01*
X77937Y-44059D01*
X77937Y-42190D01*
X77997Y-42130D01*
X78062Y-41974D01*
X78062Y-41805D01*
X77998Y-41649D01*
X77878Y-41529D01*
X77722Y-41464D01*
X77553Y-41464D01*
X77397Y-41529D01*
X77277Y-41648D01*
X77212Y-41804D01*
X77212Y-41973D01*
X77277Y-42130D01*
X77337Y-42190D01*
X77337Y-43984D01*
X77317Y-43984D01*
X77161Y-44048D01*
X77041Y-44168D01*
X76976Y-44324D01*
X76976Y-44493D01*
X77021Y-44601D01*
X76189Y-45433D01*
X76182Y-45397D01*
X76117Y-45299D01*
X76117Y-45299D01*
X74992Y-44174D01*
X74992Y-42907D01*
X74927Y-42751D01*
X74807Y-42632D01*
X74651Y-42567D01*
X74482Y-42567D01*
X74326Y-42631D01*
X74265Y-42692D01*
X74001Y-42692D01*
X73941Y-42632D01*
X73785Y-42567D01*
X73616Y-42567D01*
X73460Y-42631D01*
X73340Y-42751D01*
X73275Y-42907D01*
X73275Y-43076D01*
X73340Y-43232D01*
X73459Y-43352D01*
X73615Y-43417D01*
X73784Y-43417D01*
X73941Y-43352D01*
X74001Y-43292D01*
X74265Y-43292D01*
X74325Y-43352D01*
X74482Y-43417D01*
X74651Y-43417D01*
X74807Y-43352D01*
X74927Y-43233D01*
X74991Y-43077D01*
X74992Y-42907D01*
X74992Y-44174D01*
X74700Y-43882D01*
X74602Y-43817D01*
X74488Y-43794D01*
X73858Y-43794D01*
X73743Y-43817D01*
X73728Y-43826D01*
X73728Y-43826D01*
X73616Y-43826D01*
X73460Y-43891D01*
X73344Y-44006D01*
X73344Y-44006D01*
X73267Y-43991D01*
X73116Y-43991D01*
X72810Y-43685D01*
X72713Y-43620D01*
X72598Y-43597D01*
X71838Y-43597D01*
X72023Y-43413D01*
X72169Y-43352D01*
X72289Y-43233D01*
X72354Y-43077D01*
X72354Y-42907D01*
X72289Y-42751D01*
X72170Y-42632D01*
X72014Y-42567D01*
X71844Y-42567D01*
X71688Y-42631D01*
X71569Y-42751D01*
X71507Y-42898D01*
X71126Y-43279D01*
X70980Y-43340D01*
X70860Y-43459D01*
X70795Y-43615D01*
X70795Y-43784D01*
X70859Y-43941D01*
X70979Y-44060D01*
X71135Y-44125D01*
X71229Y-44125D01*
X71229Y-44125D01*
X71302Y-44174D01*
X71417Y-44197D01*
X71417Y-44197D01*
X71736Y-44197D01*
X71687Y-44247D01*
X71622Y-44403D01*
X71622Y-44572D01*
X71686Y-44728D01*
X71806Y-44848D01*
X71962Y-44913D01*
X72131Y-44913D01*
X72287Y-44848D01*
X72348Y-44788D01*
X72760Y-44788D01*
X75064Y-45992D01*
X75111Y-46106D01*
X75231Y-46226D01*
X75387Y-46291D01*
X75507Y-46291D01*
X75545Y-46382D01*
X75664Y-46501D01*
X75670Y-46504D01*
X74961Y-47212D01*
X74876Y-47212D01*
X74720Y-47277D01*
X74600Y-47396D01*
X74535Y-47552D01*
X74535Y-47721D01*
X74600Y-47878D01*
X74719Y-47997D01*
X74875Y-48062D01*
X75044Y-48062D01*
X75201Y-47998D01*
X75320Y-47878D01*
X75385Y-47722D01*
X75385Y-47637D01*
X77849Y-45172D01*
X77849Y-45172D01*
X77914Y-45075D01*
X77937Y-44960D01*
X77937Y-44960D01*
X77937Y-44601D01*
X78026Y-44690D01*
X78182Y-44755D01*
X78351Y-44755D01*
X78499Y-44694D01*
X79691Y-44694D01*
X79954Y-44957D01*
X79954Y-45107D01*
X80037Y-45308D01*
X80190Y-45461D01*
X80282Y-45499D01*
X80191Y-45537D01*
X80038Y-45690D01*
X79954Y-45891D01*
X79954Y-46107D01*
X80037Y-46308D01*
X80190Y-46461D01*
X80282Y-46499D01*
X80191Y-46537D01*
X80038Y-46690D01*
X79954Y-46891D01*
X79954Y-47107D01*
X80017Y-47259D01*
X79842Y-47259D01*
X79727Y-47281D01*
X79630Y-47346D01*
X79370Y-47606D01*
X79285Y-47606D01*
X79129Y-47670D01*
X79009Y-47790D01*
X78945Y-47946D01*
X78945Y-48115D01*
X79009Y-48271D01*
X79129Y-48391D01*
X79285Y-48456D01*
X79454Y-48456D01*
X79610Y-48392D01*
X79730Y-48272D01*
X79795Y-48116D01*
X79795Y-48030D01*
X79966Y-47859D01*
X79968Y-47859D01*
X79954Y-47891D01*
X79954Y-48107D01*
X80037Y-48308D01*
X80190Y-48461D01*
X80282Y-48499D01*
X80191Y-48537D01*
X80038Y-48690D01*
X79954Y-48891D01*
X79954Y-49107D01*
X80037Y-49308D01*
X80190Y-49461D01*
X80282Y-49499D01*
X80191Y-49537D01*
X80038Y-49690D01*
X79954Y-49891D01*
X79954Y-50107D01*
X80037Y-50308D01*
X80190Y-50461D01*
X80282Y-50499D01*
X80191Y-50537D01*
X80038Y-50690D01*
X79954Y-50891D01*
X79954Y-51107D01*
X80037Y-51308D01*
X80190Y-51461D01*
X80282Y-51499D01*
X80191Y-51537D01*
X80038Y-51690D01*
X79954Y-51891D01*
X79954Y-52107D01*
X80037Y-52308D01*
X80190Y-52461D01*
X80282Y-52499D01*
X80191Y-52537D01*
X80038Y-52690D01*
X79954Y-52891D01*
X79954Y-53107D01*
X80037Y-53308D01*
X80190Y-53461D01*
X80282Y-53499D01*
X80191Y-53537D01*
X80038Y-53690D01*
X79954Y-53891D01*
X79954Y-54107D01*
X80037Y-54308D01*
X80190Y-54461D01*
X80391Y-54545D01*
X80607Y-54545D01*
X80808Y-54462D01*
X80961Y-54309D01*
X80999Y-54217D01*
X81037Y-54308D01*
X81190Y-54461D01*
X81391Y-54545D01*
X81607Y-54545D01*
X81808Y-54462D01*
X81961Y-54309D01*
X81999Y-54217D01*
X82037Y-54308D01*
X82190Y-54461D01*
X82391Y-54545D01*
X82607Y-54545D01*
X82808Y-54462D01*
X82961Y-54309D01*
X82997Y-54224D01*
X83022Y-54285D01*
X83117Y-54311D01*
X83429Y-54000D01*
X83429Y-54141D01*
X83188Y-54382D01*
X83214Y-54477D01*
X83419Y-54550D01*
X83636Y-54539D01*
X83785Y-54477D01*
X83811Y-54382D01*
X83811Y-57290D01*
X83533Y-57174D01*
X83161Y-57174D01*
X82817Y-57316D01*
X82553Y-57579D01*
X82410Y-57923D01*
X82410Y-58295D01*
X82552Y-58639D01*
X82698Y-58785D01*
X80475Y-58785D01*
X80477Y-58785D01*
X80550Y-58580D01*
X80539Y-58363D01*
X80477Y-58214D01*
X80382Y-58188D01*
X80070Y-58500D01*
X80076Y-58505D01*
X80005Y-58576D01*
X80000Y-58570D01*
X79994Y-58576D01*
X79923Y-58505D01*
X79929Y-58500D01*
X79617Y-58188D01*
X79522Y-58214D01*
X79501Y-58273D01*
X79477Y-58214D01*
X79382Y-58188D01*
X79070Y-58500D01*
X79076Y-58505D01*
X79005Y-58576D01*
X79000Y-58570D01*
X78994Y-58576D01*
X78923Y-58505D01*
X78929Y-58500D01*
X78617Y-58188D01*
X78522Y-58214D01*
X78501Y-58273D01*
X78477Y-58214D01*
X78382Y-58188D01*
X78070Y-58500D01*
X78076Y-58505D01*
X78005Y-58576D01*
X78000Y-58570D01*
X77994Y-58576D01*
X77923Y-58505D01*
X77929Y-58500D01*
X77617Y-58188D01*
X77522Y-58214D01*
X77501Y-58273D01*
X77477Y-58214D01*
X77382Y-58188D01*
X77070Y-58500D01*
X77076Y-58505D01*
X77005Y-58576D01*
X77000Y-58570D01*
X76994Y-58576D01*
X76923Y-58505D01*
X76929Y-58500D01*
X76617Y-58188D01*
X76522Y-58214D01*
X76501Y-58273D01*
X76477Y-58214D01*
X76382Y-58188D01*
X76070Y-58500D01*
X76076Y-58505D01*
X76005Y-58576D01*
X76000Y-58570D01*
X75994Y-58576D01*
X75923Y-58505D01*
X75929Y-58500D01*
X75617Y-58188D01*
X75522Y-58214D01*
X75501Y-58273D01*
X75477Y-58214D01*
X75382Y-58188D01*
X75070Y-58500D01*
X75076Y-58505D01*
X75005Y-58576D01*
X75000Y-58570D01*
X74994Y-58576D01*
X74923Y-58505D01*
X74929Y-58500D01*
X74617Y-58188D01*
X74522Y-58214D01*
X74501Y-58273D01*
X74477Y-58214D01*
X74382Y-58188D01*
X74070Y-58500D01*
X74076Y-58505D01*
X74005Y-58576D01*
X74000Y-58570D01*
X73994Y-58576D01*
X73923Y-58505D01*
X73929Y-58500D01*
X73617Y-58188D01*
X73522Y-58214D01*
X73501Y-58273D01*
X73477Y-58214D01*
X73382Y-58188D01*
X73070Y-58500D01*
X73076Y-58505D01*
X73005Y-58576D01*
X73000Y-58570D01*
X72994Y-58576D01*
X72923Y-58505D01*
X72929Y-58500D01*
X72617Y-58188D01*
X72522Y-58214D01*
X72501Y-58273D01*
X72477Y-58214D01*
X72382Y-58188D01*
X72070Y-58500D01*
X72076Y-58505D01*
X72005Y-58576D01*
X72000Y-58570D01*
X71994Y-58576D01*
X71923Y-58505D01*
X71929Y-58500D01*
X71617Y-58188D01*
X71522Y-58214D01*
X71501Y-58273D01*
X71477Y-58214D01*
X71382Y-58188D01*
X71070Y-58500D01*
X71076Y-58505D01*
X71005Y-58576D01*
X71000Y-58570D01*
X70994Y-58576D01*
X70923Y-58505D01*
X70929Y-58500D01*
X70923Y-58494D01*
X70994Y-58423D01*
X71000Y-58429D01*
X71311Y-58117D01*
X71285Y-58022D01*
X71219Y-57999D01*
X71308Y-57962D01*
X71461Y-57809D01*
X71499Y-57717D01*
X71537Y-57808D01*
X71690Y-57961D01*
X71775Y-57997D01*
X71714Y-58022D01*
X71688Y-58117D01*
X72000Y-58429D01*
X72311Y-58117D01*
X72285Y-58022D01*
X72219Y-57999D01*
X72308Y-57962D01*
X72461Y-57809D01*
X72499Y-57717D01*
X72537Y-57808D01*
X72690Y-57961D01*
X72775Y-57997D01*
X72714Y-58022D01*
X72688Y-58117D01*
X73000Y-58429D01*
X73311Y-58117D01*
X73285Y-58022D01*
X73219Y-57999D01*
X73308Y-57962D01*
X73461Y-57809D01*
X73499Y-57717D01*
X73537Y-57808D01*
X73690Y-57961D01*
X73775Y-57997D01*
X73714Y-58022D01*
X73688Y-58117D01*
X74000Y-58429D01*
X74311Y-58117D01*
X74285Y-58022D01*
X74219Y-57999D01*
X74308Y-57962D01*
X74461Y-57809D01*
X74499Y-57717D01*
X74537Y-57808D01*
X74690Y-57961D01*
X74775Y-57997D01*
X74714Y-58022D01*
X74688Y-58117D01*
X75000Y-58429D01*
X75311Y-58117D01*
X75285Y-58022D01*
X75219Y-57999D01*
X75308Y-57962D01*
X75461Y-57809D01*
X75499Y-57717D01*
X75537Y-57808D01*
X75690Y-57961D01*
X75775Y-57997D01*
X75714Y-58022D01*
X75688Y-58117D01*
X76000Y-58429D01*
X76311Y-58117D01*
X76285Y-58022D01*
X76219Y-57999D01*
X76308Y-57962D01*
X76461Y-57809D01*
X76499Y-57717D01*
X76537Y-57808D01*
X76690Y-57961D01*
X76775Y-57997D01*
X76714Y-58022D01*
X76688Y-58117D01*
X77000Y-58429D01*
X77311Y-58117D01*
X77285Y-58022D01*
X77219Y-57999D01*
X77308Y-57962D01*
X77461Y-57809D01*
X77499Y-57717D01*
X77537Y-57808D01*
X77690Y-57961D01*
X77775Y-57997D01*
X77714Y-58022D01*
X77688Y-58117D01*
X78000Y-58429D01*
X78311Y-58117D01*
X78285Y-58022D01*
X78219Y-57999D01*
X78308Y-57962D01*
X78461Y-57809D01*
X78499Y-57717D01*
X78537Y-57808D01*
X78690Y-57961D01*
X78775Y-57997D01*
X78714Y-58022D01*
X78688Y-58117D01*
X79000Y-58429D01*
X79311Y-58117D01*
X79285Y-58022D01*
X79219Y-57999D01*
X79308Y-57962D01*
X79461Y-57809D01*
X79499Y-57717D01*
X79537Y-57808D01*
X79690Y-57961D01*
X79775Y-57997D01*
X79714Y-58022D01*
X79688Y-58117D01*
X80000Y-58429D01*
X80311Y-58117D01*
X80285Y-58022D01*
X80219Y-57999D01*
X80308Y-57962D01*
X80461Y-57809D01*
X80545Y-57608D01*
X80545Y-57392D01*
X80462Y-57191D01*
X80309Y-57038D01*
X80217Y-57000D01*
X80308Y-56962D01*
X80461Y-56809D01*
X80545Y-56608D01*
X80545Y-56392D01*
X80462Y-56191D01*
X80309Y-56038D01*
X80217Y-56000D01*
X80308Y-55962D01*
X80461Y-55809D01*
X80545Y-55608D01*
X80545Y-55392D01*
X80462Y-55191D01*
X80309Y-55038D01*
X80108Y-54954D01*
X79892Y-54954D01*
X79691Y-55037D01*
X79538Y-55190D01*
X79500Y-55282D01*
X79462Y-55191D01*
X79309Y-55038D01*
X79108Y-54954D01*
X78892Y-54954D01*
X78691Y-55037D01*
X78538Y-55190D01*
X78500Y-55282D01*
X78462Y-55191D01*
X78309Y-55038D01*
X78108Y-54954D01*
X77892Y-54954D01*
X77691Y-55037D01*
X77538Y-55190D01*
X77500Y-55282D01*
X77462Y-55191D01*
X77309Y-55038D01*
X77108Y-54954D01*
X76892Y-54954D01*
X76691Y-55037D01*
X76538Y-55190D01*
X76500Y-55282D01*
X76462Y-55191D01*
X76309Y-55038D01*
X76108Y-54954D01*
X75892Y-54954D01*
X75691Y-55037D01*
X75592Y-55135D01*
X75406Y-55135D01*
X75309Y-55038D01*
X75108Y-54954D01*
X74892Y-54954D01*
X74788Y-54997D01*
X74788Y-49336D01*
X75038Y-49086D01*
X75123Y-49086D01*
X75279Y-49021D01*
X75399Y-48902D01*
X75464Y-48746D01*
X75464Y-48577D01*
X75399Y-48420D01*
X75280Y-48301D01*
X75124Y-48236D01*
X74955Y-48236D01*
X74798Y-48300D01*
X74679Y-48420D01*
X74614Y-48576D01*
X74614Y-48662D01*
X74276Y-49000D01*
X74211Y-49097D01*
X74188Y-49212D01*
X74188Y-54987D01*
X74108Y-54954D01*
X73892Y-54954D01*
X73691Y-55037D01*
X73538Y-55190D01*
X73500Y-55282D01*
X73462Y-55191D01*
X73309Y-55038D01*
X73180Y-54984D01*
X73180Y-50860D01*
X73116Y-50704D01*
X72996Y-50584D01*
X72840Y-50519D01*
X72787Y-50519D01*
X72787Y-50467D01*
X72722Y-50310D01*
X72603Y-50191D01*
X72447Y-50126D01*
X72278Y-50126D01*
X72121Y-50190D01*
X72002Y-50310D01*
X71937Y-50466D01*
X71937Y-50635D01*
X72001Y-50791D01*
X72121Y-50911D01*
X72277Y-50976D01*
X72330Y-50976D01*
X72330Y-51029D01*
X72395Y-51185D01*
X72514Y-51304D01*
X72670Y-51369D01*
X72840Y-51369D01*
X72996Y-51305D01*
X73115Y-51185D01*
X73180Y-51029D01*
X73180Y-50860D01*
X73180Y-54984D01*
X73108Y-54954D01*
X72892Y-54954D01*
X72691Y-55037D01*
X72538Y-55190D01*
X72500Y-55282D01*
X72462Y-55191D01*
X72309Y-55038D01*
X72108Y-54954D01*
X71892Y-54954D01*
X71691Y-55037D01*
X71538Y-55190D01*
X71500Y-55282D01*
X71462Y-55191D01*
X71309Y-55038D01*
X71108Y-54954D01*
X70892Y-54954D01*
X70691Y-55037D01*
X70538Y-55190D01*
X70454Y-55391D01*
X70454Y-55607D01*
X70537Y-55808D01*
X70690Y-55961D01*
X70782Y-55999D01*
X70691Y-56037D01*
X70538Y-56190D01*
X70454Y-56391D01*
X70454Y-56607D01*
X70537Y-56808D01*
X70690Y-56961D01*
X70782Y-56999D01*
X70691Y-57037D01*
X70538Y-57190D01*
X70454Y-57391D01*
X70454Y-57438D01*
X70333Y-57317D01*
X69990Y-57174D01*
X69617Y-57174D01*
X69273Y-57316D01*
X69167Y-57422D01*
X69167Y-53493D01*
X69222Y-53627D01*
X69375Y-53780D01*
X69576Y-53864D01*
X69793Y-53864D01*
X69993Y-53781D01*
X70147Y-53628D01*
X70230Y-53427D01*
X70230Y-53210D01*
X70147Y-53010D01*
X69994Y-52856D01*
X69902Y-52818D01*
X69993Y-52781D01*
X70147Y-52628D01*
X70230Y-52427D01*
X70230Y-52210D01*
X70147Y-52010D01*
X69994Y-51856D01*
X69902Y-51818D01*
X69993Y-51781D01*
X70147Y-51628D01*
X70230Y-51427D01*
X70230Y-51210D01*
X70147Y-51010D01*
X69994Y-50856D01*
X69902Y-50818D01*
X69993Y-50781D01*
X70147Y-50628D01*
X70230Y-50427D01*
X70230Y-50210D01*
X70147Y-50010D01*
X69994Y-49856D01*
X69902Y-49818D01*
X69993Y-49781D01*
X70147Y-49628D01*
X70230Y-49427D01*
X70230Y-49210D01*
X70147Y-49010D01*
X69994Y-48856D01*
X69902Y-48818D01*
X69993Y-48781D01*
X70147Y-48628D01*
X70230Y-48427D01*
X70230Y-48210D01*
X70147Y-48010D01*
X69994Y-47856D01*
X69902Y-47818D01*
X69993Y-47781D01*
X70147Y-47628D01*
X70230Y-47427D01*
X70230Y-47210D01*
X70147Y-47010D01*
X69994Y-46856D01*
X69902Y-46818D01*
X69993Y-46781D01*
X70147Y-46628D01*
X70230Y-46427D01*
X70230Y-46210D01*
X70147Y-46010D01*
X69994Y-45856D01*
X69902Y-45818D01*
X69993Y-45781D01*
X70147Y-45628D01*
X70230Y-45427D01*
X70230Y-45210D01*
X70147Y-45010D01*
X69994Y-44856D01*
X69902Y-44818D01*
X69993Y-44781D01*
X70147Y-44628D01*
X70230Y-44427D01*
X70230Y-44210D01*
X70147Y-44010D01*
X69994Y-43856D01*
X69793Y-43773D01*
X69577Y-43773D01*
X69376Y-43856D01*
X69223Y-44009D01*
X69167Y-44143D01*
X69167Y-40438D01*
X69190Y-40461D01*
X69391Y-40545D01*
X69607Y-40545D01*
X69808Y-40462D01*
X69961Y-40309D01*
X69999Y-40217D01*
X70037Y-40308D01*
X70154Y-40426D01*
X70153Y-40426D01*
X70033Y-40546D01*
X69968Y-40702D01*
X69968Y-40871D01*
X70033Y-41027D01*
X70152Y-41147D01*
X70308Y-41212D01*
X70477Y-41212D01*
X70634Y-41147D01*
X70753Y-41028D01*
X70768Y-40994D01*
X79399Y-40994D01*
X79399Y-42204D01*
X79324Y-42278D01*
X79260Y-42434D01*
X79259Y-42603D01*
X79324Y-42760D01*
X79443Y-42879D01*
X79547Y-42922D01*
X79482Y-42987D01*
X79417Y-43143D01*
X79417Y-43312D01*
X79482Y-43468D01*
X79601Y-43588D01*
X79757Y-43653D01*
X79926Y-43653D01*
X80082Y-43588D01*
X80202Y-43469D01*
X80267Y-43313D01*
X80267Y-43252D01*
X81299Y-43252D01*
X81299Y-43252D01*
X81414Y-43229D01*
X81414Y-43229D01*
X81511Y-43164D01*
X82597Y-42078D01*
X82682Y-42078D01*
X82838Y-42014D01*
X82958Y-41894D01*
X83023Y-41738D01*
X83023Y-41569D01*
X82958Y-41413D01*
X82839Y-41293D01*
X82683Y-41228D01*
X82514Y-41228D01*
X82357Y-41293D01*
X82238Y-41412D01*
X82173Y-41568D01*
X82173Y-41654D01*
X81174Y-42652D01*
X80647Y-42652D01*
X80700Y-42525D01*
X80700Y-42356D01*
X80636Y-42200D01*
X80575Y-42139D01*
X80575Y-40930D01*
X80635Y-40870D01*
X80700Y-40714D01*
X80700Y-40545D01*
X80636Y-40389D01*
X80516Y-40269D01*
X80360Y-40204D01*
X80191Y-40204D01*
X80035Y-40269D01*
X80019Y-40284D01*
X80004Y-40269D01*
X79848Y-40204D01*
X79679Y-40204D01*
X79532Y-40265D01*
X74984Y-40265D01*
X75050Y-40080D01*
X75039Y-39863D01*
X74977Y-39714D01*
X74882Y-39688D01*
X74927Y-39642D01*
X74924Y-39639D01*
X82658Y-39639D01*
X82553Y-39744D01*
X82410Y-40088D01*
X82410Y-40460D01*
X82552Y-40805D01*
X82815Y-41068D01*
X83159Y-41211D01*
X83531Y-41211D01*
X83875Y-41069D01*
X83982Y-40963D01*
X83982Y-44726D01*
X83977Y-44714D01*
X83882Y-44688D01*
X83811Y-44758D01*
X83811Y-44617D01*
X83785Y-44522D01*
X83580Y-44449D01*
X83363Y-44460D01*
X83214Y-44522D01*
X83188Y-44617D01*
X83500Y-44929D01*
X83811Y-44617D01*
X83811Y-44758D01*
X83570Y-45000D01*
X83882Y-45311D01*
X83977Y-45285D01*
X83982Y-45271D01*
X83982Y-45726D01*
X83977Y-45714D01*
X83882Y-45688D01*
X83811Y-45758D01*
X83811Y-45617D01*
X83785Y-45522D01*
X83726Y-45501D01*
X83785Y-45477D01*
X83811Y-45382D01*
X83500Y-45070D01*
X83188Y-45382D01*
X83214Y-45477D01*
X83273Y-45498D01*
X83214Y-45522D01*
X83188Y-45617D01*
X83500Y-45929D01*
X83811Y-45617D01*
X83811Y-45758D01*
X83570Y-46000D01*
X83882Y-46311D01*
X83977Y-46285D01*
X83982Y-46271D01*
X83982Y-46726D01*
X83977Y-46714D01*
X83882Y-46688D01*
X83811Y-46758D01*
X83811Y-46617D01*
X83785Y-46522D01*
X83726Y-46501D01*
X83785Y-46477D01*
X83811Y-46382D01*
X83500Y-46070D01*
X83188Y-46382D01*
X83214Y-46477D01*
X83273Y-46498D01*
X83214Y-46522D01*
X83188Y-46617D01*
X83500Y-46929D01*
X83811Y-46617D01*
X83811Y-46758D01*
X83570Y-47000D01*
X83882Y-47311D01*
X83977Y-47285D01*
X83982Y-47271D01*
X83982Y-47726D01*
X83977Y-47714D01*
X83882Y-47688D01*
X83811Y-47758D01*
X83811Y-47617D01*
X83785Y-47522D01*
X83726Y-47501D01*
X83785Y-47477D01*
X83811Y-47382D01*
X83500Y-47070D01*
X83188Y-47382D01*
X83214Y-47477D01*
X83273Y-47498D01*
X83214Y-47522D01*
X83188Y-47617D01*
X83500Y-47929D01*
X83811Y-47617D01*
X83811Y-47758D01*
X83570Y-48000D01*
X83882Y-48311D01*
X83977Y-48285D01*
X83982Y-48271D01*
X83982Y-48726D01*
X83977Y-48714D01*
X83882Y-48688D01*
X83811Y-48758D01*
X83811Y-48617D01*
X83785Y-48522D01*
X83726Y-48501D01*
X83785Y-48477D01*
X83811Y-48382D01*
X83500Y-48070D01*
X83188Y-48382D01*
X83214Y-48477D01*
X83273Y-48498D01*
X83214Y-48522D01*
X83188Y-48617D01*
X83500Y-48929D01*
X83811Y-48617D01*
X83811Y-48758D01*
X83570Y-49000D01*
X83882Y-49311D01*
X83977Y-49285D01*
X83982Y-49271D01*
X83982Y-49726D01*
X83977Y-49714D01*
X83882Y-49688D01*
X83811Y-49758D01*
X83811Y-49617D01*
X83785Y-49522D01*
X83726Y-49501D01*
X83785Y-49477D01*
X83811Y-49382D01*
X83500Y-49070D01*
X83188Y-49382D01*
X83214Y-49477D01*
X83273Y-49498D01*
X83214Y-49522D01*
X83188Y-49617D01*
X83500Y-49929D01*
X83811Y-49617D01*
X83811Y-49758D01*
X83570Y-50000D01*
X83882Y-50311D01*
X83977Y-50285D01*
X83982Y-50271D01*
X83982Y-50726D01*
X83977Y-50714D01*
X83882Y-50688D01*
X83811Y-50758D01*
X83811Y-50617D01*
X83785Y-50522D01*
X83726Y-50501D01*
X83785Y-50477D01*
X83811Y-50382D01*
X83500Y-50070D01*
X83188Y-50382D01*
X83214Y-50477D01*
X83273Y-50498D01*
X83214Y-50522D01*
X83188Y-50617D01*
X83500Y-50929D01*
X83811Y-50617D01*
X83811Y-50758D01*
X83570Y-51000D01*
X83882Y-51311D01*
X83977Y-51285D01*
X83982Y-51271D01*
X83982Y-51726D01*
X83977Y-51714D01*
X83882Y-51688D01*
X83811Y-51758D01*
X83811Y-51617D01*
X83785Y-51522D01*
X83726Y-51501D01*
X83785Y-51477D01*
X83811Y-51382D01*
X83500Y-51070D01*
X83188Y-51382D01*
X83214Y-51477D01*
X83273Y-51498D01*
X83214Y-51522D01*
X83188Y-51617D01*
X83500Y-51929D01*
X83811Y-51617D01*
X83811Y-51758D01*
X83570Y-52000D01*
X83882Y-52311D01*
X83977Y-52285D01*
X83982Y-52271D01*
X83982Y-52726D01*
X83977Y-52714D01*
X83882Y-52688D01*
X83811Y-52758D01*
X83811Y-52617D01*
X83785Y-52522D01*
X83726Y-52501D01*
X83785Y-52477D01*
X83811Y-52382D01*
X83500Y-52070D01*
X83188Y-52382D01*
X83214Y-52477D01*
X83273Y-52498D01*
X83214Y-52522D01*
X83188Y-52617D01*
X83500Y-52929D01*
X83811Y-52617D01*
X83811Y-52758D01*
X83570Y-53000D01*
X83882Y-53311D01*
X83977Y-53285D01*
X83982Y-53271D01*
X83982Y-53726D01*
X83977Y-53714D01*
X83882Y-53688D01*
X83811Y-53758D01*
X83811Y-53617D01*
X83785Y-53522D01*
X83726Y-53501D01*
X83785Y-53477D01*
X83811Y-53382D01*
X83500Y-53070D01*
X83188Y-53382D01*
X83214Y-53477D01*
X83273Y-53498D01*
X83214Y-53522D01*
X83188Y-53617D01*
X83500Y-53929D01*
X83811Y-53617D01*
X83811Y-53758D01*
X83570Y-54000D01*
X83882Y-54311D01*
X83977Y-54285D01*
X83982Y-54271D01*
X83982Y-57422D01*
M02*
