G04 (created by PCBNEW (25-Oct-2014 BZR 4029)-stable) date Tue 06 Oct 2015 06:54:11 PM EDT*
%MOIN*%
G04 Gerber Fmt 3.4, Leading zero omitted, Abs format*
%FSLAX34Y34*%
G01*
G70*
G90*
G04 APERTURE LIST*
%ADD10C,0.00590551*%
%ADD11C,0.00787402*%
%ADD12C,0.00492126*%
G04 APERTURE END LIST*
G54D10*
G54D11*
X75866Y-47165D02*
G75*
G03X75866Y-47165I-39J0D01*
G74*
G01*
G54D10*
X80236Y-52204D02*
G75*
G03X80236Y-52204I-1968J0D01*
G74*
G01*
X81150Y-40099D02*
X81318Y-40099D01*
X81234Y-40395D02*
X81234Y-40099D01*
X81515Y-40240D02*
X81417Y-40240D01*
X81417Y-40395D02*
X81417Y-40099D01*
X81557Y-40099D01*
X81754Y-40099D02*
X81754Y-40310D01*
X81740Y-40352D01*
X81712Y-40381D01*
X81670Y-40395D01*
X81642Y-40395D01*
X82050Y-40395D02*
X81881Y-40395D01*
X81965Y-40395D02*
X81965Y-40099D01*
X81937Y-40142D01*
X81909Y-40170D01*
X81881Y-40184D01*
X74450Y-49281D02*
X74154Y-49281D01*
X74365Y-49183D01*
X74154Y-49084D01*
X74450Y-49084D01*
X74422Y-48775D02*
X74436Y-48789D01*
X74450Y-48831D01*
X74450Y-48859D01*
X74436Y-48901D01*
X74408Y-48929D01*
X74379Y-48944D01*
X74323Y-48958D01*
X74281Y-48958D01*
X74225Y-48944D01*
X74197Y-48929D01*
X74169Y-48901D01*
X74154Y-48859D01*
X74154Y-48831D01*
X74169Y-48789D01*
X74183Y-48775D01*
X74154Y-48648D02*
X74393Y-48648D01*
X74422Y-48634D01*
X74436Y-48620D01*
X74450Y-48592D01*
X74450Y-48536D01*
X74436Y-48508D01*
X74422Y-48494D01*
X74393Y-48480D01*
X74154Y-48480D01*
X74450Y-48184D02*
X74450Y-48353D01*
X74450Y-48269D02*
X74154Y-48269D01*
X74197Y-48297D01*
X74225Y-48325D01*
X74239Y-48353D01*
G54D12*
X73858Y-43924D02*
X73900Y-43938D01*
X73970Y-43938D01*
X73998Y-43924D01*
X74012Y-43910D01*
X74026Y-43882D01*
X74026Y-43854D01*
X74012Y-43825D01*
X73998Y-43811D01*
X73970Y-43797D01*
X73914Y-43783D01*
X73886Y-43769D01*
X73872Y-43755D01*
X73858Y-43727D01*
X73858Y-43699D01*
X73872Y-43671D01*
X73886Y-43657D01*
X73914Y-43643D01*
X73984Y-43643D01*
X74026Y-43657D01*
X74125Y-43643D02*
X74195Y-43938D01*
X74251Y-43727D01*
X74308Y-43938D01*
X74378Y-43643D01*
X74645Y-43938D02*
X74476Y-43938D01*
X74561Y-43938D02*
X74561Y-43643D01*
X74533Y-43685D01*
X74505Y-43713D01*
X74476Y-43727D01*
X77559Y-47743D02*
X77601Y-47757D01*
X77671Y-47757D01*
X77699Y-47743D01*
X77713Y-47729D01*
X77727Y-47701D01*
X77727Y-47672D01*
X77713Y-47644D01*
X77699Y-47630D01*
X77671Y-47616D01*
X77615Y-47602D01*
X77587Y-47588D01*
X77573Y-47574D01*
X77559Y-47546D01*
X77559Y-47518D01*
X77573Y-47490D01*
X77587Y-47476D01*
X77615Y-47462D01*
X77685Y-47462D01*
X77727Y-47476D01*
X77826Y-47462D02*
X77896Y-47757D01*
X77952Y-47546D01*
X78008Y-47757D01*
X78079Y-47462D01*
X78177Y-47490D02*
X78191Y-47476D01*
X78219Y-47462D01*
X78290Y-47462D01*
X78318Y-47476D01*
X78332Y-47490D01*
X78346Y-47518D01*
X78346Y-47546D01*
X78332Y-47588D01*
X78163Y-47757D01*
X78346Y-47757D01*
G54D10*
X78790Y-42540D02*
X78790Y-42779D01*
X78804Y-42807D01*
X78818Y-42821D01*
X78847Y-42836D01*
X78903Y-42836D01*
X78931Y-42821D01*
X78945Y-42807D01*
X78959Y-42779D01*
X78959Y-42540D01*
X79254Y-42836D02*
X79086Y-42836D01*
X79170Y-42836D02*
X79170Y-42540D01*
X79142Y-42582D01*
X79114Y-42611D01*
X79086Y-42625D01*
X76888Y-41714D02*
X76888Y-41953D01*
X76902Y-41981D01*
X76916Y-41995D01*
X76944Y-42009D01*
X77000Y-42009D01*
X77028Y-41995D01*
X77043Y-41981D01*
X77057Y-41953D01*
X77057Y-41714D01*
X77183Y-41995D02*
X77225Y-42009D01*
X77296Y-42009D01*
X77324Y-41995D01*
X77338Y-41981D01*
X77352Y-41953D01*
X77352Y-41924D01*
X77338Y-41896D01*
X77324Y-41882D01*
X77296Y-41868D01*
X77239Y-41854D01*
X77211Y-41840D01*
X77197Y-41826D01*
X77183Y-41798D01*
X77183Y-41770D01*
X77197Y-41742D01*
X77211Y-41728D01*
X77239Y-41714D01*
X77310Y-41714D01*
X77352Y-41728D01*
X77577Y-41854D02*
X77619Y-41868D01*
X77633Y-41882D01*
X77647Y-41910D01*
X77647Y-41953D01*
X77633Y-41981D01*
X77619Y-41995D01*
X77591Y-42009D01*
X77478Y-42009D01*
X77478Y-41714D01*
X77577Y-41714D01*
X77605Y-41728D01*
X77619Y-41742D01*
X77633Y-41770D01*
X77633Y-41798D01*
X77619Y-41826D01*
X77605Y-41840D01*
X77577Y-41854D01*
X77478Y-41854D01*
X77928Y-42009D02*
X77760Y-42009D01*
X77844Y-42009D02*
X77844Y-41714D01*
X77816Y-41756D01*
X77788Y-41784D01*
X77760Y-41798D01*
X79045Y-41445D02*
X79031Y-41473D01*
X79003Y-41501D01*
X78960Y-41543D01*
X78946Y-41571D01*
X78946Y-41600D01*
X79017Y-41586D02*
X79003Y-41614D01*
X78974Y-41642D01*
X78918Y-41656D01*
X78820Y-41656D01*
X78764Y-41642D01*
X78735Y-41614D01*
X78721Y-41586D01*
X78721Y-41529D01*
X78735Y-41501D01*
X78764Y-41473D01*
X78820Y-41459D01*
X78918Y-41459D01*
X78974Y-41473D01*
X79003Y-41501D01*
X79017Y-41529D01*
X79017Y-41586D01*
X78750Y-41347D02*
X78735Y-41332D01*
X78721Y-41304D01*
X78721Y-41234D01*
X78735Y-41206D01*
X78750Y-41192D01*
X78778Y-41178D01*
X78806Y-41178D01*
X78848Y-41192D01*
X79017Y-41361D01*
X79017Y-41178D01*
X69557Y-42311D02*
X69543Y-42339D01*
X69514Y-42367D01*
X69472Y-42410D01*
X69458Y-42438D01*
X69458Y-42466D01*
X69528Y-42452D02*
X69514Y-42480D01*
X69486Y-42508D01*
X69430Y-42522D01*
X69332Y-42522D01*
X69275Y-42508D01*
X69247Y-42480D01*
X69233Y-42452D01*
X69233Y-42395D01*
X69247Y-42367D01*
X69275Y-42339D01*
X69332Y-42325D01*
X69430Y-42325D01*
X69486Y-42339D01*
X69514Y-42367D01*
X69528Y-42395D01*
X69528Y-42452D01*
X69528Y-42044D02*
X69528Y-42213D01*
X69528Y-42128D02*
X69233Y-42128D01*
X69275Y-42156D01*
X69303Y-42185D01*
X69318Y-42213D01*
X75828Y-50769D02*
X75532Y-50769D01*
X75532Y-50698D01*
X75546Y-50656D01*
X75575Y-50628D01*
X75603Y-50614D01*
X75659Y-50600D01*
X75701Y-50600D01*
X75757Y-50614D01*
X75785Y-50628D01*
X75814Y-50656D01*
X75828Y-50698D01*
X75828Y-50769D01*
X75828Y-50319D02*
X75828Y-50487D01*
X75828Y-50403D02*
X75532Y-50403D01*
X75575Y-50431D01*
X75603Y-50459D01*
X75617Y-50487D01*
X76077Y-51488D02*
X76190Y-51188D01*
X76302Y-51488D01*
X72716Y-40414D02*
X72716Y-40625D01*
X72702Y-40667D01*
X72674Y-40696D01*
X72632Y-40710D01*
X72604Y-40710D01*
X72983Y-40414D02*
X72927Y-40414D01*
X72899Y-40428D01*
X72885Y-40442D01*
X72857Y-40485D01*
X72843Y-40541D01*
X72843Y-40653D01*
X72857Y-40681D01*
X72871Y-40696D01*
X72899Y-40710D01*
X72955Y-40710D01*
X72983Y-40696D01*
X72997Y-40681D01*
X73011Y-40653D01*
X73011Y-40583D01*
X72997Y-40555D01*
X72983Y-40541D01*
X72955Y-40527D01*
X72899Y-40527D01*
X72871Y-40541D01*
X72857Y-40555D01*
X72843Y-40583D01*
X73138Y-40710D02*
X73138Y-40414D01*
X73138Y-40555D02*
X73307Y-40555D01*
X73307Y-40710D02*
X73307Y-40414D01*
X73602Y-40710D02*
X73433Y-40710D01*
X73517Y-40710D02*
X73517Y-40414D01*
X73489Y-40456D01*
X73461Y-40485D01*
X73433Y-40499D01*
X70824Y-55075D02*
X71035Y-55075D01*
X71077Y-55089D01*
X71105Y-55117D01*
X71119Y-55160D01*
X71119Y-55188D01*
X70922Y-54808D02*
X71119Y-54808D01*
X70810Y-54878D02*
X71021Y-54949D01*
X71021Y-54766D01*
X71119Y-54653D02*
X70824Y-54653D01*
X70964Y-54653D02*
X70964Y-54485D01*
X71119Y-54485D02*
X70824Y-54485D01*
X71007Y-54344D02*
X71007Y-54119D01*
X71119Y-53978D02*
X70824Y-53978D01*
X70852Y-53852D02*
X70838Y-53838D01*
X70824Y-53810D01*
X70824Y-53739D01*
X70838Y-53711D01*
X70852Y-53697D01*
X70880Y-53683D01*
X70908Y-53683D01*
X70950Y-53697D01*
X71119Y-53866D01*
X71119Y-53683D01*
X71091Y-53388D02*
X71105Y-53402D01*
X71119Y-53444D01*
X71119Y-53472D01*
X71105Y-53514D01*
X71077Y-53543D01*
X71049Y-53557D01*
X70992Y-53571D01*
X70950Y-53571D01*
X70894Y-53557D01*
X70866Y-53543D01*
X70838Y-53514D01*
X70824Y-53472D01*
X70824Y-53444D01*
X70838Y-53402D01*
X70852Y-53388D01*
X71119Y-53107D02*
X71119Y-53275D01*
X71119Y-53191D02*
X70824Y-53191D01*
X70866Y-53219D01*
X70894Y-53247D01*
X70908Y-53275D01*
X70824Y-52924D02*
X70824Y-52896D01*
X70838Y-52868D01*
X70852Y-52854D01*
X70880Y-52839D01*
X70936Y-52825D01*
X71007Y-52825D01*
X71063Y-52839D01*
X71091Y-52854D01*
X71105Y-52868D01*
X71119Y-52896D01*
X71119Y-52924D01*
X71105Y-52952D01*
X71091Y-52966D01*
X71063Y-52980D01*
X71007Y-52994D01*
X70936Y-52994D01*
X70880Y-52980D01*
X70852Y-52966D01*
X70838Y-52952D01*
X70824Y-52924D01*
X71824Y-54935D02*
X72035Y-54935D01*
X72077Y-54949D01*
X72105Y-54977D01*
X72119Y-55019D01*
X72119Y-55047D01*
X71922Y-54667D02*
X72119Y-54667D01*
X71810Y-54738D02*
X72021Y-54808D01*
X72021Y-54625D01*
X72119Y-54513D02*
X71824Y-54513D01*
X71964Y-54513D02*
X71964Y-54344D01*
X72119Y-54344D02*
X71824Y-54344D01*
X72007Y-54203D02*
X72007Y-53978D01*
X72119Y-53838D02*
X71824Y-53838D01*
X71852Y-53711D02*
X71838Y-53697D01*
X71824Y-53669D01*
X71824Y-53599D01*
X71838Y-53571D01*
X71852Y-53557D01*
X71880Y-53543D01*
X71908Y-53543D01*
X71950Y-53557D01*
X72119Y-53725D01*
X72119Y-53543D01*
X72091Y-53247D02*
X72105Y-53261D01*
X72119Y-53303D01*
X72119Y-53332D01*
X72105Y-53374D01*
X72077Y-53402D01*
X72049Y-53416D01*
X71992Y-53430D01*
X71950Y-53430D01*
X71894Y-53416D01*
X71866Y-53402D01*
X71838Y-53374D01*
X71824Y-53332D01*
X71824Y-53303D01*
X71838Y-53261D01*
X71852Y-53247D01*
X72119Y-53107D02*
X72119Y-53050D01*
X72105Y-53022D01*
X72091Y-53008D01*
X72049Y-52980D01*
X71992Y-52966D01*
X71880Y-52966D01*
X71852Y-52980D01*
X71838Y-52994D01*
X71824Y-53022D01*
X71824Y-53079D01*
X71838Y-53107D01*
X71852Y-53121D01*
X71880Y-53135D01*
X71950Y-53135D01*
X71978Y-53121D01*
X71992Y-53107D01*
X72007Y-53079D01*
X72007Y-53022D01*
X71992Y-52994D01*
X71978Y-52980D01*
X71950Y-52966D01*
X72824Y-54935D02*
X73035Y-54935D01*
X73077Y-54949D01*
X73105Y-54977D01*
X73119Y-55019D01*
X73119Y-55047D01*
X72922Y-54667D02*
X73119Y-54667D01*
X72810Y-54738D02*
X73021Y-54808D01*
X73021Y-54625D01*
X73119Y-54513D02*
X72824Y-54513D01*
X72964Y-54513D02*
X72964Y-54344D01*
X73119Y-54344D02*
X72824Y-54344D01*
X73007Y-54203D02*
X73007Y-53978D01*
X73119Y-53838D02*
X72824Y-53838D01*
X72852Y-53711D02*
X72838Y-53697D01*
X72824Y-53669D01*
X72824Y-53599D01*
X72838Y-53571D01*
X72852Y-53557D01*
X72880Y-53543D01*
X72908Y-53543D01*
X72950Y-53557D01*
X73119Y-53725D01*
X73119Y-53543D01*
X73091Y-53247D02*
X73105Y-53261D01*
X73119Y-53303D01*
X73119Y-53332D01*
X73105Y-53374D01*
X73077Y-53402D01*
X73049Y-53416D01*
X72992Y-53430D01*
X72950Y-53430D01*
X72894Y-53416D01*
X72866Y-53402D01*
X72838Y-53374D01*
X72824Y-53332D01*
X72824Y-53303D01*
X72838Y-53261D01*
X72852Y-53247D01*
X72950Y-53079D02*
X72936Y-53107D01*
X72922Y-53121D01*
X72894Y-53135D01*
X72880Y-53135D01*
X72852Y-53121D01*
X72838Y-53107D01*
X72824Y-53079D01*
X72824Y-53022D01*
X72838Y-52994D01*
X72852Y-52980D01*
X72880Y-52966D01*
X72894Y-52966D01*
X72922Y-52980D01*
X72936Y-52994D01*
X72950Y-53022D01*
X72950Y-53079D01*
X72964Y-53107D01*
X72978Y-53121D01*
X73007Y-53135D01*
X73063Y-53135D01*
X73091Y-53121D01*
X73105Y-53107D01*
X73119Y-53079D01*
X73119Y-53022D01*
X73105Y-52994D01*
X73091Y-52980D01*
X73063Y-52966D01*
X73007Y-52966D01*
X72978Y-52980D01*
X72964Y-52994D01*
X72950Y-53022D01*
X73824Y-54935D02*
X74035Y-54935D01*
X74077Y-54949D01*
X74105Y-54977D01*
X74119Y-55019D01*
X74119Y-55047D01*
X73922Y-54667D02*
X74119Y-54667D01*
X73810Y-54738D02*
X74021Y-54808D01*
X74021Y-54625D01*
X74119Y-54513D02*
X73824Y-54513D01*
X73964Y-54513D02*
X73964Y-54344D01*
X74119Y-54344D02*
X73824Y-54344D01*
X74007Y-54203D02*
X74007Y-53978D01*
X74119Y-53838D02*
X73824Y-53838D01*
X73852Y-53711D02*
X73838Y-53697D01*
X73824Y-53669D01*
X73824Y-53599D01*
X73838Y-53571D01*
X73852Y-53557D01*
X73880Y-53543D01*
X73908Y-53543D01*
X73950Y-53557D01*
X74119Y-53725D01*
X74119Y-53543D01*
X74091Y-53247D02*
X74105Y-53261D01*
X74119Y-53303D01*
X74119Y-53332D01*
X74105Y-53374D01*
X74077Y-53402D01*
X74049Y-53416D01*
X73992Y-53430D01*
X73950Y-53430D01*
X73894Y-53416D01*
X73866Y-53402D01*
X73838Y-53374D01*
X73824Y-53332D01*
X73824Y-53303D01*
X73838Y-53261D01*
X73852Y-53247D01*
X73824Y-53149D02*
X73824Y-52952D01*
X74119Y-53079D01*
X74824Y-54935D02*
X75035Y-54935D01*
X75077Y-54949D01*
X75105Y-54977D01*
X75119Y-55019D01*
X75119Y-55047D01*
X74922Y-54667D02*
X75119Y-54667D01*
X74810Y-54738D02*
X75021Y-54808D01*
X75021Y-54625D01*
X75119Y-54513D02*
X74824Y-54513D01*
X74964Y-54513D02*
X74964Y-54344D01*
X75119Y-54344D02*
X74824Y-54344D01*
X75007Y-54203D02*
X75007Y-53978D01*
X75119Y-53838D02*
X74824Y-53838D01*
X74852Y-53711D02*
X74838Y-53697D01*
X74824Y-53669D01*
X74824Y-53599D01*
X74838Y-53571D01*
X74852Y-53557D01*
X74880Y-53543D01*
X74908Y-53543D01*
X74950Y-53557D01*
X75119Y-53725D01*
X75119Y-53543D01*
X75091Y-53247D02*
X75105Y-53261D01*
X75119Y-53303D01*
X75119Y-53332D01*
X75105Y-53374D01*
X75077Y-53402D01*
X75049Y-53416D01*
X74992Y-53430D01*
X74950Y-53430D01*
X74894Y-53416D01*
X74866Y-53402D01*
X74838Y-53374D01*
X74824Y-53332D01*
X74824Y-53303D01*
X74838Y-53261D01*
X74852Y-53247D01*
X74824Y-52994D02*
X74824Y-53050D01*
X74838Y-53079D01*
X74852Y-53093D01*
X74894Y-53121D01*
X74950Y-53135D01*
X75063Y-53135D01*
X75091Y-53121D01*
X75105Y-53107D01*
X75119Y-53079D01*
X75119Y-53022D01*
X75105Y-52994D01*
X75091Y-52980D01*
X75063Y-52966D01*
X74992Y-52966D01*
X74964Y-52980D01*
X74950Y-52994D01*
X74936Y-53022D01*
X74936Y-53079D01*
X74950Y-53107D01*
X74964Y-53121D01*
X74992Y-53135D01*
X75824Y-54935D02*
X76035Y-54935D01*
X76077Y-54949D01*
X76105Y-54977D01*
X76119Y-55019D01*
X76119Y-55047D01*
X75922Y-54667D02*
X76119Y-54667D01*
X75810Y-54738D02*
X76021Y-54808D01*
X76021Y-54625D01*
X76119Y-54513D02*
X75824Y-54513D01*
X75964Y-54513D02*
X75964Y-54344D01*
X76119Y-54344D02*
X75824Y-54344D01*
X76007Y-54203D02*
X76007Y-53978D01*
X76119Y-53838D02*
X75824Y-53838D01*
X75852Y-53711D02*
X75838Y-53697D01*
X75824Y-53669D01*
X75824Y-53599D01*
X75838Y-53571D01*
X75852Y-53557D01*
X75880Y-53543D01*
X75908Y-53543D01*
X75950Y-53557D01*
X76119Y-53725D01*
X76119Y-53543D01*
X76091Y-53247D02*
X76105Y-53261D01*
X76119Y-53303D01*
X76119Y-53332D01*
X76105Y-53374D01*
X76077Y-53402D01*
X76049Y-53416D01*
X75992Y-53430D01*
X75950Y-53430D01*
X75894Y-53416D01*
X75866Y-53402D01*
X75838Y-53374D01*
X75824Y-53332D01*
X75824Y-53303D01*
X75838Y-53261D01*
X75852Y-53247D01*
X75824Y-52980D02*
X75824Y-53121D01*
X75964Y-53135D01*
X75950Y-53121D01*
X75936Y-53093D01*
X75936Y-53022D01*
X75950Y-52994D01*
X75964Y-52980D01*
X75992Y-52966D01*
X76063Y-52966D01*
X76091Y-52980D01*
X76105Y-52994D01*
X76119Y-53022D01*
X76119Y-53093D01*
X76105Y-53121D01*
X76091Y-53135D01*
X76824Y-54935D02*
X77035Y-54935D01*
X77077Y-54949D01*
X77105Y-54977D01*
X77119Y-55019D01*
X77119Y-55047D01*
X76922Y-54667D02*
X77119Y-54667D01*
X76810Y-54738D02*
X77021Y-54808D01*
X77021Y-54625D01*
X77119Y-54513D02*
X76824Y-54513D01*
X76964Y-54513D02*
X76964Y-54344D01*
X77119Y-54344D02*
X76824Y-54344D01*
X77007Y-54203D02*
X77007Y-53978D01*
X77119Y-53838D02*
X76824Y-53838D01*
X76852Y-53711D02*
X76838Y-53697D01*
X76824Y-53669D01*
X76824Y-53599D01*
X76838Y-53571D01*
X76852Y-53557D01*
X76880Y-53543D01*
X76908Y-53543D01*
X76950Y-53557D01*
X77119Y-53725D01*
X77119Y-53543D01*
X77091Y-53247D02*
X77105Y-53261D01*
X77119Y-53303D01*
X77119Y-53332D01*
X77105Y-53374D01*
X77077Y-53402D01*
X77049Y-53416D01*
X76992Y-53430D01*
X76950Y-53430D01*
X76894Y-53416D01*
X76866Y-53402D01*
X76838Y-53374D01*
X76824Y-53332D01*
X76824Y-53303D01*
X76838Y-53261D01*
X76852Y-53247D01*
X76922Y-52994D02*
X77119Y-52994D01*
X76810Y-53064D02*
X77021Y-53135D01*
X77021Y-52952D01*
X80963Y-44257D02*
X80963Y-44468D01*
X80949Y-44510D01*
X80920Y-44538D01*
X80878Y-44552D01*
X80850Y-44552D01*
X81230Y-44355D02*
X81230Y-44552D01*
X81160Y-44243D02*
X81089Y-44454D01*
X81272Y-44454D01*
X81384Y-44552D02*
X81384Y-44257D01*
X81384Y-44397D02*
X81553Y-44397D01*
X81553Y-44552D02*
X81553Y-44257D01*
X81694Y-44440D02*
X81919Y-44440D01*
X82228Y-44524D02*
X82214Y-44538D01*
X82172Y-44552D01*
X82144Y-44552D01*
X82102Y-44538D01*
X82073Y-44510D01*
X82059Y-44482D01*
X82045Y-44426D01*
X82045Y-44383D01*
X82059Y-44327D01*
X82073Y-44299D01*
X82102Y-44271D01*
X82144Y-44257D01*
X82172Y-44257D01*
X82214Y-44271D01*
X82228Y-44285D01*
X82341Y-44468D02*
X82481Y-44468D01*
X82312Y-44552D02*
X82411Y-44257D01*
X82509Y-44552D01*
X82608Y-44552D02*
X82608Y-44257D01*
X82776Y-44552D01*
X82776Y-44257D01*
X83072Y-44552D02*
X82903Y-44552D01*
X82987Y-44552D02*
X82987Y-44257D01*
X82959Y-44299D01*
X82931Y-44327D01*
X82903Y-44341D01*
X80980Y-54391D02*
X80980Y-54602D01*
X80965Y-54644D01*
X80937Y-54672D01*
X80895Y-54686D01*
X80867Y-54686D01*
X81247Y-54489D02*
X81247Y-54686D01*
X81176Y-54377D02*
X81106Y-54588D01*
X81289Y-54588D01*
X81401Y-54686D02*
X81401Y-54391D01*
X81401Y-54531D02*
X81570Y-54531D01*
X81570Y-54686D02*
X81570Y-54391D01*
X81711Y-54573D02*
X81936Y-54573D01*
X82245Y-54658D02*
X82231Y-54672D01*
X82189Y-54686D01*
X82161Y-54686D01*
X82118Y-54672D01*
X82090Y-54644D01*
X82076Y-54616D01*
X82062Y-54559D01*
X82062Y-54517D01*
X82076Y-54461D01*
X82090Y-54433D01*
X82118Y-54405D01*
X82161Y-54391D01*
X82189Y-54391D01*
X82231Y-54405D01*
X82245Y-54419D01*
X82357Y-54602D02*
X82498Y-54602D01*
X82329Y-54686D02*
X82428Y-54391D01*
X82526Y-54686D01*
X82625Y-54686D02*
X82625Y-54391D01*
X82793Y-54686D01*
X82793Y-54391D01*
X83089Y-54686D02*
X82920Y-54686D01*
X83004Y-54686D02*
X83004Y-54391D01*
X82976Y-54433D01*
X82948Y-54461D01*
X82920Y-54475D01*
X83271Y-54391D02*
X83300Y-54391D01*
X83328Y-54405D01*
X83342Y-54419D01*
X83356Y-54447D01*
X83370Y-54503D01*
X83370Y-54573D01*
X83356Y-54630D01*
X83342Y-54658D01*
X83328Y-54672D01*
X83300Y-54686D01*
X83271Y-54686D01*
X83243Y-54672D01*
X83229Y-54658D01*
X83215Y-54630D01*
X83201Y-54573D01*
X83201Y-54503D01*
X83215Y-54447D01*
X83229Y-54419D01*
X83243Y-54405D01*
X83271Y-54391D01*
X79824Y-54935D02*
X80035Y-54935D01*
X80077Y-54949D01*
X80105Y-54977D01*
X80119Y-55019D01*
X80119Y-55047D01*
X79922Y-54667D02*
X80119Y-54667D01*
X79810Y-54738D02*
X80021Y-54808D01*
X80021Y-54625D01*
X80119Y-54513D02*
X79824Y-54513D01*
X79964Y-54513D02*
X79964Y-54344D01*
X80119Y-54344D02*
X79824Y-54344D01*
X80007Y-54203D02*
X80007Y-53978D01*
X80119Y-53838D02*
X79824Y-53838D01*
X79852Y-53711D02*
X79838Y-53697D01*
X79824Y-53669D01*
X79824Y-53599D01*
X79838Y-53571D01*
X79852Y-53557D01*
X79880Y-53543D01*
X79908Y-53543D01*
X79950Y-53557D01*
X80119Y-53725D01*
X80119Y-53543D01*
X80091Y-53247D02*
X80105Y-53261D01*
X80119Y-53303D01*
X80119Y-53332D01*
X80105Y-53374D01*
X80077Y-53402D01*
X80049Y-53416D01*
X79992Y-53430D01*
X79950Y-53430D01*
X79894Y-53416D01*
X79866Y-53402D01*
X79838Y-53374D01*
X79824Y-53332D01*
X79824Y-53303D01*
X79838Y-53261D01*
X79852Y-53247D01*
X80119Y-52966D02*
X80119Y-53135D01*
X80119Y-53050D02*
X79824Y-53050D01*
X79866Y-53079D01*
X79894Y-53107D01*
X79908Y-53135D01*
X70631Y-50862D02*
X70913Y-50862D01*
X70969Y-50881D01*
X71006Y-50918D01*
X71025Y-50974D01*
X71025Y-51012D01*
X71025Y-50468D02*
X71025Y-50693D01*
X71025Y-50581D02*
X70631Y-50581D01*
X70688Y-50618D01*
X70725Y-50656D01*
X70744Y-50693D01*
X70631Y-50224D02*
X70631Y-50187D01*
X70650Y-50149D01*
X70669Y-50131D01*
X70706Y-50112D01*
X70781Y-50093D01*
X70875Y-50093D01*
X70950Y-50112D01*
X70988Y-50131D01*
X71006Y-50149D01*
X71025Y-50187D01*
X71025Y-50224D01*
X71006Y-50262D01*
X70988Y-50281D01*
X70950Y-50299D01*
X70875Y-50318D01*
X70781Y-50318D01*
X70706Y-50299D01*
X70669Y-50281D01*
X70650Y-50262D01*
X70631Y-50224D01*
X71025Y-49925D02*
X70631Y-49925D01*
X70819Y-49925D02*
X70819Y-49700D01*
X71025Y-49700D02*
X70631Y-49700D01*
X70875Y-49512D02*
X70875Y-49212D01*
X70650Y-48818D02*
X70631Y-48856D01*
X70631Y-48912D01*
X70650Y-48968D01*
X70688Y-49006D01*
X70725Y-49025D01*
X70800Y-49043D01*
X70856Y-49043D01*
X70931Y-49025D01*
X70969Y-49006D01*
X71006Y-48968D01*
X71025Y-48912D01*
X71025Y-48875D01*
X71006Y-48818D01*
X70988Y-48800D01*
X70856Y-48800D01*
X70856Y-48875D01*
X71025Y-48631D02*
X70631Y-48631D01*
X70631Y-48481D01*
X70650Y-48443D01*
X70669Y-48425D01*
X70706Y-48406D01*
X70763Y-48406D01*
X70800Y-48425D01*
X70819Y-48443D01*
X70838Y-48481D01*
X70838Y-48631D01*
X71025Y-48237D02*
X70631Y-48237D01*
X70631Y-47975D02*
X70631Y-47900D01*
X70650Y-47862D01*
X70688Y-47825D01*
X70763Y-47806D01*
X70894Y-47806D01*
X70969Y-47825D01*
X71006Y-47862D01*
X71025Y-47900D01*
X71025Y-47975D01*
X71006Y-48012D01*
X70969Y-48050D01*
X70894Y-48068D01*
X70763Y-48068D01*
X70688Y-48050D01*
X70650Y-48012D01*
X70631Y-47975D01*
X71025Y-47431D02*
X71025Y-47656D01*
X71025Y-47544D02*
X70631Y-47544D01*
X70688Y-47581D01*
X70725Y-47619D01*
X70744Y-47656D01*
X70198Y-55403D02*
X70057Y-55501D01*
X70198Y-55572D02*
X69902Y-55572D01*
X69902Y-55459D01*
X69917Y-55431D01*
X69931Y-55417D01*
X69959Y-55403D01*
X70001Y-55403D01*
X70029Y-55417D01*
X70043Y-55431D01*
X70057Y-55459D01*
X70057Y-55572D01*
X70001Y-55150D02*
X70198Y-55150D01*
X69888Y-55220D02*
X70099Y-55291D01*
X70099Y-55108D01*
X69725Y-55403D02*
X69585Y-55501D01*
X69725Y-55572D02*
X69430Y-55572D01*
X69430Y-55459D01*
X69444Y-55431D01*
X69458Y-55417D01*
X69486Y-55403D01*
X69528Y-55403D01*
X69557Y-55417D01*
X69571Y-55431D01*
X69585Y-55459D01*
X69585Y-55572D01*
X69430Y-55136D02*
X69430Y-55276D01*
X69571Y-55291D01*
X69557Y-55276D01*
X69543Y-55248D01*
X69543Y-55178D01*
X69557Y-55150D01*
X69571Y-55136D01*
X69599Y-55122D01*
X69669Y-55122D01*
X69697Y-55136D01*
X69711Y-55150D01*
X69725Y-55178D01*
X69725Y-55248D01*
X69711Y-55276D01*
X69697Y-55291D01*
X76654Y-49734D02*
X76514Y-49832D01*
X76654Y-49902D02*
X76359Y-49902D01*
X76359Y-49790D01*
X76373Y-49762D01*
X76387Y-49748D01*
X76415Y-49734D01*
X76458Y-49734D01*
X76486Y-49748D01*
X76500Y-49762D01*
X76514Y-49790D01*
X76514Y-49902D01*
X76654Y-49453D02*
X76654Y-49621D01*
X76654Y-49537D02*
X76359Y-49537D01*
X76401Y-49565D01*
X76429Y-49593D01*
X76444Y-49621D01*
X75147Y-52414D02*
X75133Y-52428D01*
X75091Y-52442D01*
X75063Y-52442D01*
X75021Y-52428D01*
X74992Y-52400D01*
X74978Y-52372D01*
X74964Y-52315D01*
X74964Y-52273D01*
X74978Y-52217D01*
X74992Y-52189D01*
X75021Y-52161D01*
X75063Y-52147D01*
X75091Y-52147D01*
X75133Y-52161D01*
X75147Y-52175D01*
X75316Y-52273D02*
X75288Y-52259D01*
X75274Y-52245D01*
X75260Y-52217D01*
X75260Y-52203D01*
X75274Y-52175D01*
X75288Y-52161D01*
X75316Y-52147D01*
X75372Y-52147D01*
X75400Y-52161D01*
X75414Y-52175D01*
X75428Y-52203D01*
X75428Y-52217D01*
X75414Y-52245D01*
X75400Y-52259D01*
X75372Y-52273D01*
X75316Y-52273D01*
X75288Y-52287D01*
X75274Y-52301D01*
X75260Y-52329D01*
X75260Y-52386D01*
X75274Y-52414D01*
X75288Y-52428D01*
X75316Y-52442D01*
X75372Y-52442D01*
X75400Y-52428D01*
X75414Y-52414D01*
X75428Y-52386D01*
X75428Y-52329D01*
X75414Y-52301D01*
X75400Y-52287D01*
X75372Y-52273D01*
X75147Y-51075D02*
X75133Y-51089D01*
X75091Y-51103D01*
X75063Y-51103D01*
X75021Y-51089D01*
X74992Y-51061D01*
X74978Y-51033D01*
X74964Y-50977D01*
X74964Y-50935D01*
X74978Y-50878D01*
X74992Y-50850D01*
X75021Y-50822D01*
X75063Y-50808D01*
X75091Y-50808D01*
X75133Y-50822D01*
X75147Y-50836D01*
X75246Y-50808D02*
X75442Y-50808D01*
X75316Y-51103D01*
X71508Y-49891D02*
X71522Y-49905D01*
X71536Y-49947D01*
X71536Y-49976D01*
X71522Y-50018D01*
X71494Y-50046D01*
X71466Y-50060D01*
X71410Y-50074D01*
X71368Y-50074D01*
X71311Y-50060D01*
X71283Y-50046D01*
X71255Y-50018D01*
X71241Y-49976D01*
X71241Y-49947D01*
X71255Y-49905D01*
X71269Y-49891D01*
X71241Y-49793D02*
X71241Y-49610D01*
X71354Y-49708D01*
X71354Y-49666D01*
X71368Y-49638D01*
X71382Y-49624D01*
X71410Y-49610D01*
X71480Y-49610D01*
X71508Y-49624D01*
X71522Y-49638D01*
X71536Y-49666D01*
X71536Y-49751D01*
X71522Y-49779D01*
X71508Y-49793D01*
X74596Y-46075D02*
X74582Y-46089D01*
X74540Y-46103D01*
X74512Y-46103D01*
X74469Y-46089D01*
X74441Y-46061D01*
X74427Y-46033D01*
X74413Y-45977D01*
X74413Y-45935D01*
X74427Y-45878D01*
X74441Y-45850D01*
X74469Y-45822D01*
X74512Y-45808D01*
X74540Y-45808D01*
X74582Y-45822D01*
X74596Y-45836D01*
X74863Y-45808D02*
X74723Y-45808D01*
X74708Y-45949D01*
X74723Y-45935D01*
X74751Y-45920D01*
X74821Y-45920D01*
X74849Y-45935D01*
X74863Y-45949D01*
X74877Y-45977D01*
X74877Y-46047D01*
X74863Y-46075D01*
X74849Y-46089D01*
X74821Y-46103D01*
X74751Y-46103D01*
X74723Y-46089D01*
X74708Y-46075D01*
X73336Y-45485D02*
X73322Y-45499D01*
X73280Y-45513D01*
X73252Y-45513D01*
X73210Y-45499D01*
X73181Y-45471D01*
X73167Y-45442D01*
X73153Y-45386D01*
X73153Y-45344D01*
X73167Y-45288D01*
X73181Y-45260D01*
X73210Y-45232D01*
X73252Y-45217D01*
X73280Y-45217D01*
X73322Y-45232D01*
X73336Y-45246D01*
X73589Y-45316D02*
X73589Y-45513D01*
X73519Y-45203D02*
X73449Y-45414D01*
X73631Y-45414D01*
X74990Y-44855D02*
X74976Y-44869D01*
X74933Y-44883D01*
X74905Y-44883D01*
X74863Y-44869D01*
X74835Y-44841D01*
X74821Y-44812D01*
X74807Y-44756D01*
X74807Y-44714D01*
X74821Y-44658D01*
X74835Y-44630D01*
X74863Y-44602D01*
X74905Y-44588D01*
X74933Y-44588D01*
X74976Y-44602D01*
X74990Y-44616D01*
X75243Y-44588D02*
X75187Y-44588D01*
X75158Y-44602D01*
X75144Y-44616D01*
X75116Y-44658D01*
X75102Y-44714D01*
X75102Y-44827D01*
X75116Y-44855D01*
X75130Y-44869D01*
X75158Y-44883D01*
X75215Y-44883D01*
X75243Y-44869D01*
X75257Y-44855D01*
X75271Y-44827D01*
X75271Y-44756D01*
X75257Y-44728D01*
X75243Y-44714D01*
X75215Y-44700D01*
X75158Y-44700D01*
X75130Y-44714D01*
X75116Y-44728D01*
X75102Y-44756D01*
X76941Y-46410D02*
X76955Y-46424D01*
X76969Y-46466D01*
X76969Y-46494D01*
X76955Y-46536D01*
X76927Y-46564D01*
X76899Y-46579D01*
X76843Y-46593D01*
X76801Y-46593D01*
X76744Y-46579D01*
X76716Y-46564D01*
X76688Y-46536D01*
X76674Y-46494D01*
X76674Y-46466D01*
X76688Y-46424D01*
X76702Y-46410D01*
X76969Y-46129D02*
X76969Y-46297D01*
X76969Y-46213D02*
X76674Y-46213D01*
X76716Y-46241D01*
X76744Y-46269D01*
X76758Y-46297D01*
X76674Y-45946D02*
X76674Y-45918D01*
X76688Y-45890D01*
X76702Y-45875D01*
X76730Y-45861D01*
X76787Y-45847D01*
X76857Y-45847D01*
X76913Y-45861D01*
X76941Y-45875D01*
X76955Y-45890D01*
X76969Y-45918D01*
X76969Y-45946D01*
X76955Y-45974D01*
X76941Y-45988D01*
X76913Y-46002D01*
X76857Y-46016D01*
X76787Y-46016D01*
X76730Y-46002D01*
X76702Y-45988D01*
X76688Y-45974D01*
X76674Y-45946D01*
X76548Y-46427D02*
X76562Y-46441D01*
X76576Y-46483D01*
X76576Y-46511D01*
X76562Y-46553D01*
X76534Y-46581D01*
X76505Y-46595D01*
X76449Y-46609D01*
X76407Y-46609D01*
X76351Y-46595D01*
X76323Y-46581D01*
X76294Y-46553D01*
X76280Y-46511D01*
X76280Y-46483D01*
X76294Y-46441D01*
X76309Y-46427D01*
X76576Y-46286D02*
X76576Y-46230D01*
X76562Y-46202D01*
X76548Y-46188D01*
X76505Y-46160D01*
X76449Y-46145D01*
X76337Y-46145D01*
X76309Y-46160D01*
X76294Y-46174D01*
X76280Y-46202D01*
X76280Y-46258D01*
X76294Y-46286D01*
X76309Y-46300D01*
X76337Y-46314D01*
X76407Y-46314D01*
X76435Y-46300D01*
X76449Y-46286D01*
X76463Y-46258D01*
X76463Y-46202D01*
X76449Y-46174D01*
X76435Y-46160D01*
X76407Y-46145D01*
X81998Y-55631D02*
X81899Y-55490D01*
X81829Y-55631D02*
X81829Y-55336D01*
X81941Y-55336D01*
X81969Y-55350D01*
X81983Y-55364D01*
X81998Y-55392D01*
X81998Y-55434D01*
X81983Y-55462D01*
X81969Y-55476D01*
X81941Y-55490D01*
X81829Y-55490D01*
X82096Y-55336D02*
X82279Y-55336D01*
X82180Y-55448D01*
X82223Y-55448D01*
X82251Y-55462D01*
X82265Y-55476D01*
X82279Y-55504D01*
X82279Y-55575D01*
X82265Y-55603D01*
X82251Y-55617D01*
X82223Y-55631D01*
X82138Y-55631D01*
X82110Y-55617D01*
X82096Y-55603D01*
X80985Y-43592D02*
X80845Y-43690D01*
X80985Y-43761D02*
X80690Y-43761D01*
X80690Y-43648D01*
X80704Y-43620D01*
X80718Y-43606D01*
X80746Y-43592D01*
X80788Y-43592D01*
X80816Y-43606D01*
X80830Y-43620D01*
X80845Y-43648D01*
X80845Y-43761D01*
X80718Y-43480D02*
X80704Y-43465D01*
X80690Y-43437D01*
X80690Y-43367D01*
X80704Y-43339D01*
X80718Y-43325D01*
X80746Y-43311D01*
X80774Y-43311D01*
X80816Y-43325D01*
X80985Y-43494D01*
X80985Y-43311D01*
X78297Y-46351D02*
X78283Y-46365D01*
X78241Y-46379D01*
X78212Y-46379D01*
X78170Y-46365D01*
X78142Y-46337D01*
X78128Y-46309D01*
X78114Y-46252D01*
X78114Y-46210D01*
X78128Y-46154D01*
X78142Y-46126D01*
X78170Y-46098D01*
X78212Y-46084D01*
X78241Y-46084D01*
X78283Y-46098D01*
X78297Y-46112D01*
X78409Y-46112D02*
X78423Y-46098D01*
X78451Y-46084D01*
X78522Y-46084D01*
X78550Y-46098D01*
X78564Y-46112D01*
X78578Y-46140D01*
X78578Y-46168D01*
X78564Y-46210D01*
X78395Y-46379D01*
X78578Y-46379D01*
X78297Y-46863D02*
X78283Y-46877D01*
X78241Y-46891D01*
X78212Y-46891D01*
X78170Y-46877D01*
X78142Y-46848D01*
X78128Y-46820D01*
X78114Y-46764D01*
X78114Y-46722D01*
X78128Y-46666D01*
X78142Y-46638D01*
X78170Y-46609D01*
X78212Y-46595D01*
X78241Y-46595D01*
X78283Y-46609D01*
X78297Y-46624D01*
X78578Y-46891D02*
X78409Y-46891D01*
X78494Y-46891D02*
X78494Y-46595D01*
X78465Y-46638D01*
X78437Y-46666D01*
X78409Y-46680D01*
X76075Y-52552D02*
X76089Y-52566D01*
X76103Y-52608D01*
X76103Y-52636D01*
X76089Y-52678D01*
X76061Y-52706D01*
X76033Y-52720D01*
X75977Y-52734D01*
X75935Y-52734D01*
X75878Y-52720D01*
X75850Y-52706D01*
X75822Y-52678D01*
X75808Y-52636D01*
X75808Y-52608D01*
X75822Y-52566D01*
X75836Y-52552D01*
X76103Y-52270D02*
X76103Y-52439D01*
X76103Y-52355D02*
X75808Y-52355D01*
X75850Y-52383D01*
X75878Y-52411D01*
X75892Y-52439D01*
X76103Y-51989D02*
X76103Y-52158D01*
X76103Y-52073D02*
X75808Y-52073D01*
X75850Y-52102D01*
X75878Y-52130D01*
X75892Y-52158D01*
X76392Y-54161D02*
X76392Y-53712D01*
X76616Y-53937D02*
X76167Y-53937D01*
X72792Y-43703D02*
X73088Y-43506D01*
X72792Y-43506D02*
X73088Y-43703D01*
X73088Y-43239D02*
X73088Y-43408D01*
X73088Y-43323D02*
X72792Y-43323D01*
X72834Y-43352D01*
X72863Y-43380D01*
X72877Y-43408D01*
X70833Y-44500D02*
X70819Y-44514D01*
X70777Y-44528D01*
X70749Y-44528D01*
X70707Y-44514D01*
X70679Y-44486D01*
X70665Y-44458D01*
X70651Y-44402D01*
X70651Y-44360D01*
X70665Y-44303D01*
X70679Y-44275D01*
X70707Y-44247D01*
X70749Y-44233D01*
X70777Y-44233D01*
X70819Y-44247D01*
X70833Y-44261D01*
X71115Y-44528D02*
X70946Y-44528D01*
X71030Y-44528D02*
X71030Y-44233D01*
X71002Y-44275D01*
X70974Y-44303D01*
X70946Y-44318D01*
X71213Y-44233D02*
X71396Y-44233D01*
X71297Y-44346D01*
X71339Y-44346D01*
X71368Y-44360D01*
X71382Y-44374D01*
X71396Y-44402D01*
X71396Y-44472D01*
X71382Y-44500D01*
X71368Y-44514D01*
X71339Y-44528D01*
X71255Y-44528D01*
X71227Y-44514D01*
X71213Y-44500D01*
X69731Y-43477D02*
X69717Y-43491D01*
X69675Y-43505D01*
X69647Y-43505D01*
X69604Y-43491D01*
X69576Y-43463D01*
X69562Y-43435D01*
X69548Y-43378D01*
X69548Y-43336D01*
X69562Y-43280D01*
X69576Y-43252D01*
X69604Y-43224D01*
X69647Y-43210D01*
X69675Y-43210D01*
X69717Y-43224D01*
X69731Y-43238D01*
X70012Y-43505D02*
X69843Y-43505D01*
X69928Y-43505D02*
X69928Y-43210D01*
X69900Y-43252D01*
X69872Y-43280D01*
X69843Y-43294D01*
X70125Y-43238D02*
X70139Y-43224D01*
X70167Y-43210D01*
X70237Y-43210D01*
X70265Y-43224D01*
X70279Y-43238D01*
X70293Y-43266D01*
X70293Y-43294D01*
X70279Y-43336D01*
X70111Y-43505D01*
X70293Y-43505D01*
M02*
