G04 (created by PCBNEW (25-Oct-2014 BZR 4029)-stable) date Sun 04 Oct 2015 01:48:44 PM EDT*
%MOIN*%
G04 Gerber Fmt 3.4, Leading zero omitted, Abs format*
%FSLAX34Y34*%
G01*
G70*
G90*
G04 APERTURE LIST*
%ADD10C,0.00590551*%
%ADD11C,0.00787402*%
%ADD12C,0.00492126*%
G04 APERTURE END LIST*
G54D10*
G54D11*
X75866Y-47165D02*
G75*
G03X75866Y-47165I-39J0D01*
G74*
G01*
G54D10*
X80236Y-52204D02*
G75*
G03X80236Y-52204I-1968J0D01*
G74*
G01*
X81425Y-43367D02*
X81594Y-43367D01*
X81510Y-43662D02*
X81510Y-43367D01*
X81791Y-43508D02*
X81692Y-43508D01*
X81692Y-43662D02*
X81692Y-43367D01*
X81833Y-43367D01*
X82030Y-43367D02*
X82030Y-43578D01*
X82016Y-43620D01*
X81988Y-43648D01*
X81946Y-43662D01*
X81917Y-43662D01*
X82325Y-43662D02*
X82156Y-43662D01*
X82241Y-43662D02*
X82241Y-43367D01*
X82213Y-43409D01*
X82185Y-43437D01*
X82156Y-43451D01*
X74450Y-49281D02*
X74154Y-49281D01*
X74365Y-49183D01*
X74154Y-49084D01*
X74450Y-49084D01*
X74422Y-48775D02*
X74436Y-48789D01*
X74450Y-48831D01*
X74450Y-48859D01*
X74436Y-48901D01*
X74408Y-48929D01*
X74379Y-48944D01*
X74323Y-48958D01*
X74281Y-48958D01*
X74225Y-48944D01*
X74197Y-48929D01*
X74169Y-48901D01*
X74154Y-48859D01*
X74154Y-48831D01*
X74169Y-48789D01*
X74183Y-48775D01*
X74154Y-48648D02*
X74393Y-48648D01*
X74422Y-48634D01*
X74436Y-48620D01*
X74450Y-48592D01*
X74450Y-48536D01*
X74436Y-48508D01*
X74422Y-48494D01*
X74393Y-48480D01*
X74154Y-48480D01*
X74450Y-48184D02*
X74450Y-48353D01*
X74450Y-48269D02*
X74154Y-48269D01*
X74197Y-48297D01*
X74225Y-48325D01*
X74239Y-48353D01*
G54D12*
X73858Y-43924D02*
X73900Y-43938D01*
X73970Y-43938D01*
X73998Y-43924D01*
X74012Y-43910D01*
X74026Y-43882D01*
X74026Y-43854D01*
X74012Y-43825D01*
X73998Y-43811D01*
X73970Y-43797D01*
X73914Y-43783D01*
X73886Y-43769D01*
X73872Y-43755D01*
X73858Y-43727D01*
X73858Y-43699D01*
X73872Y-43671D01*
X73886Y-43657D01*
X73914Y-43643D01*
X73984Y-43643D01*
X74026Y-43657D01*
X74125Y-43643D02*
X74195Y-43938D01*
X74251Y-43727D01*
X74308Y-43938D01*
X74378Y-43643D01*
X74645Y-43938D02*
X74476Y-43938D01*
X74561Y-43938D02*
X74561Y-43643D01*
X74533Y-43685D01*
X74505Y-43713D01*
X74476Y-43727D01*
X77559Y-47743D02*
X77601Y-47757D01*
X77671Y-47757D01*
X77699Y-47743D01*
X77713Y-47729D01*
X77727Y-47701D01*
X77727Y-47672D01*
X77713Y-47644D01*
X77699Y-47630D01*
X77671Y-47616D01*
X77615Y-47602D01*
X77587Y-47588D01*
X77573Y-47574D01*
X77559Y-47546D01*
X77559Y-47518D01*
X77573Y-47490D01*
X77587Y-47476D01*
X77615Y-47462D01*
X77685Y-47462D01*
X77727Y-47476D01*
X77826Y-47462D02*
X77896Y-47757D01*
X77952Y-47546D01*
X78008Y-47757D01*
X78079Y-47462D01*
X78177Y-47490D02*
X78191Y-47476D01*
X78219Y-47462D01*
X78290Y-47462D01*
X78318Y-47476D01*
X78332Y-47490D01*
X78346Y-47518D01*
X78346Y-47546D01*
X78332Y-47588D01*
X78163Y-47757D01*
X78346Y-47757D01*
G54D10*
X77609Y-41832D02*
X77609Y-42071D01*
X77623Y-42099D01*
X77637Y-42113D01*
X77665Y-42127D01*
X77722Y-42127D01*
X77750Y-42113D01*
X77764Y-42099D01*
X77778Y-42071D01*
X77778Y-41832D01*
X78073Y-42127D02*
X77904Y-42127D01*
X77989Y-42127D02*
X77989Y-41832D01*
X77961Y-41874D01*
X77933Y-41902D01*
X77904Y-41916D01*
X76888Y-41714D02*
X76888Y-41953D01*
X76902Y-41981D01*
X76916Y-41995D01*
X76944Y-42009D01*
X77000Y-42009D01*
X77028Y-41995D01*
X77043Y-41981D01*
X77057Y-41953D01*
X77057Y-41714D01*
X77183Y-41995D02*
X77225Y-42009D01*
X77296Y-42009D01*
X77324Y-41995D01*
X77338Y-41981D01*
X77352Y-41953D01*
X77352Y-41924D01*
X77338Y-41896D01*
X77324Y-41882D01*
X77296Y-41868D01*
X77239Y-41854D01*
X77211Y-41840D01*
X77197Y-41826D01*
X77183Y-41798D01*
X77183Y-41770D01*
X77197Y-41742D01*
X77211Y-41728D01*
X77239Y-41714D01*
X77310Y-41714D01*
X77352Y-41728D01*
X77577Y-41854D02*
X77619Y-41868D01*
X77633Y-41882D01*
X77647Y-41910D01*
X77647Y-41953D01*
X77633Y-41981D01*
X77619Y-41995D01*
X77591Y-42009D01*
X77478Y-42009D01*
X77478Y-41714D01*
X77577Y-41714D01*
X77605Y-41728D01*
X77619Y-41742D01*
X77633Y-41770D01*
X77633Y-41798D01*
X77619Y-41826D01*
X77605Y-41840D01*
X77577Y-41854D01*
X77478Y-41854D01*
X77928Y-42009D02*
X77760Y-42009D01*
X77844Y-42009D02*
X77844Y-41714D01*
X77816Y-41756D01*
X77788Y-41784D01*
X77760Y-41798D01*
X79045Y-41445D02*
X79031Y-41473D01*
X79003Y-41501D01*
X78960Y-41543D01*
X78946Y-41571D01*
X78946Y-41600D01*
X79017Y-41586D02*
X79003Y-41614D01*
X78974Y-41642D01*
X78918Y-41656D01*
X78820Y-41656D01*
X78764Y-41642D01*
X78735Y-41614D01*
X78721Y-41586D01*
X78721Y-41529D01*
X78735Y-41501D01*
X78764Y-41473D01*
X78820Y-41459D01*
X78918Y-41459D01*
X78974Y-41473D01*
X79003Y-41501D01*
X79017Y-41529D01*
X79017Y-41586D01*
X78750Y-41347D02*
X78735Y-41332D01*
X78721Y-41304D01*
X78721Y-41234D01*
X78735Y-41206D01*
X78750Y-41192D01*
X78778Y-41178D01*
X78806Y-41178D01*
X78848Y-41192D01*
X79017Y-41361D01*
X79017Y-41178D01*
X69832Y-42547D02*
X69818Y-42575D01*
X69790Y-42604D01*
X69748Y-42646D01*
X69734Y-42674D01*
X69734Y-42702D01*
X69804Y-42688D02*
X69790Y-42716D01*
X69762Y-42744D01*
X69706Y-42758D01*
X69607Y-42758D01*
X69551Y-42744D01*
X69523Y-42716D01*
X69509Y-42688D01*
X69509Y-42632D01*
X69523Y-42604D01*
X69551Y-42575D01*
X69607Y-42561D01*
X69706Y-42561D01*
X69762Y-42575D01*
X69790Y-42604D01*
X69804Y-42632D01*
X69804Y-42688D01*
X69804Y-42280D02*
X69804Y-42449D01*
X69804Y-42365D02*
X69509Y-42365D01*
X69551Y-42393D01*
X69579Y-42421D01*
X69593Y-42449D01*
X75828Y-50769D02*
X75532Y-50769D01*
X75532Y-50698D01*
X75546Y-50656D01*
X75575Y-50628D01*
X75603Y-50614D01*
X75659Y-50600D01*
X75701Y-50600D01*
X75757Y-50614D01*
X75785Y-50628D01*
X75814Y-50656D01*
X75828Y-50698D01*
X75828Y-50769D01*
X75828Y-50319D02*
X75828Y-50487D01*
X75828Y-50403D02*
X75532Y-50403D01*
X75575Y-50431D01*
X75603Y-50459D01*
X75617Y-50487D01*
X76077Y-51488D02*
X76190Y-51188D01*
X76302Y-51488D01*
X71574Y-40532D02*
X71574Y-40743D01*
X71560Y-40785D01*
X71532Y-40814D01*
X71490Y-40828D01*
X71462Y-40828D01*
X71841Y-40532D02*
X71785Y-40532D01*
X71757Y-40546D01*
X71743Y-40561D01*
X71715Y-40603D01*
X71701Y-40659D01*
X71701Y-40771D01*
X71715Y-40800D01*
X71729Y-40814D01*
X71757Y-40828D01*
X71813Y-40828D01*
X71841Y-40814D01*
X71856Y-40800D01*
X71870Y-40771D01*
X71870Y-40701D01*
X71856Y-40673D01*
X71841Y-40659D01*
X71813Y-40645D01*
X71757Y-40645D01*
X71729Y-40659D01*
X71715Y-40673D01*
X71701Y-40701D01*
X71996Y-40828D02*
X71996Y-40532D01*
X71996Y-40673D02*
X72165Y-40673D01*
X72165Y-40828D02*
X72165Y-40532D01*
X72460Y-40828D02*
X72291Y-40828D01*
X72376Y-40828D02*
X72376Y-40532D01*
X72348Y-40575D01*
X72320Y-40603D01*
X72291Y-40617D01*
X70824Y-55075D02*
X71035Y-55075D01*
X71077Y-55089D01*
X71105Y-55117D01*
X71119Y-55160D01*
X71119Y-55188D01*
X70922Y-54808D02*
X71119Y-54808D01*
X70810Y-54878D02*
X71021Y-54949D01*
X71021Y-54766D01*
X71119Y-54653D02*
X70824Y-54653D01*
X70964Y-54653D02*
X70964Y-54485D01*
X71119Y-54485D02*
X70824Y-54485D01*
X71007Y-54344D02*
X71007Y-54119D01*
X71119Y-53978D02*
X70824Y-53978D01*
X70852Y-53852D02*
X70838Y-53838D01*
X70824Y-53810D01*
X70824Y-53739D01*
X70838Y-53711D01*
X70852Y-53697D01*
X70880Y-53683D01*
X70908Y-53683D01*
X70950Y-53697D01*
X71119Y-53866D01*
X71119Y-53683D01*
X71091Y-53388D02*
X71105Y-53402D01*
X71119Y-53444D01*
X71119Y-53472D01*
X71105Y-53514D01*
X71077Y-53543D01*
X71049Y-53557D01*
X70992Y-53571D01*
X70950Y-53571D01*
X70894Y-53557D01*
X70866Y-53543D01*
X70838Y-53514D01*
X70824Y-53472D01*
X70824Y-53444D01*
X70838Y-53402D01*
X70852Y-53388D01*
X71119Y-53107D02*
X71119Y-53275D01*
X71119Y-53191D02*
X70824Y-53191D01*
X70866Y-53219D01*
X70894Y-53247D01*
X70908Y-53275D01*
X70824Y-52924D02*
X70824Y-52896D01*
X70838Y-52868D01*
X70852Y-52854D01*
X70880Y-52839D01*
X70936Y-52825D01*
X71007Y-52825D01*
X71063Y-52839D01*
X71091Y-52854D01*
X71105Y-52868D01*
X71119Y-52896D01*
X71119Y-52924D01*
X71105Y-52952D01*
X71091Y-52966D01*
X71063Y-52980D01*
X71007Y-52994D01*
X70936Y-52994D01*
X70880Y-52980D01*
X70852Y-52966D01*
X70838Y-52952D01*
X70824Y-52924D01*
X71824Y-54935D02*
X72035Y-54935D01*
X72077Y-54949D01*
X72105Y-54977D01*
X72119Y-55019D01*
X72119Y-55047D01*
X71922Y-54667D02*
X72119Y-54667D01*
X71810Y-54738D02*
X72021Y-54808D01*
X72021Y-54625D01*
X72119Y-54513D02*
X71824Y-54513D01*
X71964Y-54513D02*
X71964Y-54344D01*
X72119Y-54344D02*
X71824Y-54344D01*
X72007Y-54203D02*
X72007Y-53978D01*
X72119Y-53838D02*
X71824Y-53838D01*
X71852Y-53711D02*
X71838Y-53697D01*
X71824Y-53669D01*
X71824Y-53599D01*
X71838Y-53571D01*
X71852Y-53557D01*
X71880Y-53543D01*
X71908Y-53543D01*
X71950Y-53557D01*
X72119Y-53725D01*
X72119Y-53543D01*
X72091Y-53247D02*
X72105Y-53261D01*
X72119Y-53303D01*
X72119Y-53332D01*
X72105Y-53374D01*
X72077Y-53402D01*
X72049Y-53416D01*
X71992Y-53430D01*
X71950Y-53430D01*
X71894Y-53416D01*
X71866Y-53402D01*
X71838Y-53374D01*
X71824Y-53332D01*
X71824Y-53303D01*
X71838Y-53261D01*
X71852Y-53247D01*
X72119Y-53107D02*
X72119Y-53050D01*
X72105Y-53022D01*
X72091Y-53008D01*
X72049Y-52980D01*
X71992Y-52966D01*
X71880Y-52966D01*
X71852Y-52980D01*
X71838Y-52994D01*
X71824Y-53022D01*
X71824Y-53079D01*
X71838Y-53107D01*
X71852Y-53121D01*
X71880Y-53135D01*
X71950Y-53135D01*
X71978Y-53121D01*
X71992Y-53107D01*
X72007Y-53079D01*
X72007Y-53022D01*
X71992Y-52994D01*
X71978Y-52980D01*
X71950Y-52966D01*
X72824Y-54935D02*
X73035Y-54935D01*
X73077Y-54949D01*
X73105Y-54977D01*
X73119Y-55019D01*
X73119Y-55047D01*
X72922Y-54667D02*
X73119Y-54667D01*
X72810Y-54738D02*
X73021Y-54808D01*
X73021Y-54625D01*
X73119Y-54513D02*
X72824Y-54513D01*
X72964Y-54513D02*
X72964Y-54344D01*
X73119Y-54344D02*
X72824Y-54344D01*
X73007Y-54203D02*
X73007Y-53978D01*
X73119Y-53838D02*
X72824Y-53838D01*
X72852Y-53711D02*
X72838Y-53697D01*
X72824Y-53669D01*
X72824Y-53599D01*
X72838Y-53571D01*
X72852Y-53557D01*
X72880Y-53543D01*
X72908Y-53543D01*
X72950Y-53557D01*
X73119Y-53725D01*
X73119Y-53543D01*
X73091Y-53247D02*
X73105Y-53261D01*
X73119Y-53303D01*
X73119Y-53332D01*
X73105Y-53374D01*
X73077Y-53402D01*
X73049Y-53416D01*
X72992Y-53430D01*
X72950Y-53430D01*
X72894Y-53416D01*
X72866Y-53402D01*
X72838Y-53374D01*
X72824Y-53332D01*
X72824Y-53303D01*
X72838Y-53261D01*
X72852Y-53247D01*
X72950Y-53079D02*
X72936Y-53107D01*
X72922Y-53121D01*
X72894Y-53135D01*
X72880Y-53135D01*
X72852Y-53121D01*
X72838Y-53107D01*
X72824Y-53079D01*
X72824Y-53022D01*
X72838Y-52994D01*
X72852Y-52980D01*
X72880Y-52966D01*
X72894Y-52966D01*
X72922Y-52980D01*
X72936Y-52994D01*
X72950Y-53022D01*
X72950Y-53079D01*
X72964Y-53107D01*
X72978Y-53121D01*
X73007Y-53135D01*
X73063Y-53135D01*
X73091Y-53121D01*
X73105Y-53107D01*
X73119Y-53079D01*
X73119Y-53022D01*
X73105Y-52994D01*
X73091Y-52980D01*
X73063Y-52966D01*
X73007Y-52966D01*
X72978Y-52980D01*
X72964Y-52994D01*
X72950Y-53022D01*
X73824Y-54935D02*
X74035Y-54935D01*
X74077Y-54949D01*
X74105Y-54977D01*
X74119Y-55019D01*
X74119Y-55047D01*
X73922Y-54667D02*
X74119Y-54667D01*
X73810Y-54738D02*
X74021Y-54808D01*
X74021Y-54625D01*
X74119Y-54513D02*
X73824Y-54513D01*
X73964Y-54513D02*
X73964Y-54344D01*
X74119Y-54344D02*
X73824Y-54344D01*
X74007Y-54203D02*
X74007Y-53978D01*
X74119Y-53838D02*
X73824Y-53838D01*
X73852Y-53711D02*
X73838Y-53697D01*
X73824Y-53669D01*
X73824Y-53599D01*
X73838Y-53571D01*
X73852Y-53557D01*
X73880Y-53543D01*
X73908Y-53543D01*
X73950Y-53557D01*
X74119Y-53725D01*
X74119Y-53543D01*
X74091Y-53247D02*
X74105Y-53261D01*
X74119Y-53303D01*
X74119Y-53332D01*
X74105Y-53374D01*
X74077Y-53402D01*
X74049Y-53416D01*
X73992Y-53430D01*
X73950Y-53430D01*
X73894Y-53416D01*
X73866Y-53402D01*
X73838Y-53374D01*
X73824Y-53332D01*
X73824Y-53303D01*
X73838Y-53261D01*
X73852Y-53247D01*
X73824Y-53149D02*
X73824Y-52952D01*
X74119Y-53079D01*
X74824Y-54935D02*
X75035Y-54935D01*
X75077Y-54949D01*
X75105Y-54977D01*
X75119Y-55019D01*
X75119Y-55047D01*
X74922Y-54667D02*
X75119Y-54667D01*
X74810Y-54738D02*
X75021Y-54808D01*
X75021Y-54625D01*
X75119Y-54513D02*
X74824Y-54513D01*
X74964Y-54513D02*
X74964Y-54344D01*
X75119Y-54344D02*
X74824Y-54344D01*
X75007Y-54203D02*
X75007Y-53978D01*
X75119Y-53838D02*
X74824Y-53838D01*
X74852Y-53711D02*
X74838Y-53697D01*
X74824Y-53669D01*
X74824Y-53599D01*
X74838Y-53571D01*
X74852Y-53557D01*
X74880Y-53543D01*
X74908Y-53543D01*
X74950Y-53557D01*
X75119Y-53725D01*
X75119Y-53543D01*
X75091Y-53247D02*
X75105Y-53261D01*
X75119Y-53303D01*
X75119Y-53332D01*
X75105Y-53374D01*
X75077Y-53402D01*
X75049Y-53416D01*
X74992Y-53430D01*
X74950Y-53430D01*
X74894Y-53416D01*
X74866Y-53402D01*
X74838Y-53374D01*
X74824Y-53332D01*
X74824Y-53303D01*
X74838Y-53261D01*
X74852Y-53247D01*
X74824Y-52994D02*
X74824Y-53050D01*
X74838Y-53079D01*
X74852Y-53093D01*
X74894Y-53121D01*
X74950Y-53135D01*
X75063Y-53135D01*
X75091Y-53121D01*
X75105Y-53107D01*
X75119Y-53079D01*
X75119Y-53022D01*
X75105Y-52994D01*
X75091Y-52980D01*
X75063Y-52966D01*
X74992Y-52966D01*
X74964Y-52980D01*
X74950Y-52994D01*
X74936Y-53022D01*
X74936Y-53079D01*
X74950Y-53107D01*
X74964Y-53121D01*
X74992Y-53135D01*
X75824Y-54935D02*
X76035Y-54935D01*
X76077Y-54949D01*
X76105Y-54977D01*
X76119Y-55019D01*
X76119Y-55047D01*
X75922Y-54667D02*
X76119Y-54667D01*
X75810Y-54738D02*
X76021Y-54808D01*
X76021Y-54625D01*
X76119Y-54513D02*
X75824Y-54513D01*
X75964Y-54513D02*
X75964Y-54344D01*
X76119Y-54344D02*
X75824Y-54344D01*
X76007Y-54203D02*
X76007Y-53978D01*
X76119Y-53838D02*
X75824Y-53838D01*
X75852Y-53711D02*
X75838Y-53697D01*
X75824Y-53669D01*
X75824Y-53599D01*
X75838Y-53571D01*
X75852Y-53557D01*
X75880Y-53543D01*
X75908Y-53543D01*
X75950Y-53557D01*
X76119Y-53725D01*
X76119Y-53543D01*
X76091Y-53247D02*
X76105Y-53261D01*
X76119Y-53303D01*
X76119Y-53332D01*
X76105Y-53374D01*
X76077Y-53402D01*
X76049Y-53416D01*
X75992Y-53430D01*
X75950Y-53430D01*
X75894Y-53416D01*
X75866Y-53402D01*
X75838Y-53374D01*
X75824Y-53332D01*
X75824Y-53303D01*
X75838Y-53261D01*
X75852Y-53247D01*
X75824Y-52980D02*
X75824Y-53121D01*
X75964Y-53135D01*
X75950Y-53121D01*
X75936Y-53093D01*
X75936Y-53022D01*
X75950Y-52994D01*
X75964Y-52980D01*
X75992Y-52966D01*
X76063Y-52966D01*
X76091Y-52980D01*
X76105Y-52994D01*
X76119Y-53022D01*
X76119Y-53093D01*
X76105Y-53121D01*
X76091Y-53135D01*
X76824Y-54935D02*
X77035Y-54935D01*
X77077Y-54949D01*
X77105Y-54977D01*
X77119Y-55019D01*
X77119Y-55047D01*
X76922Y-54667D02*
X77119Y-54667D01*
X76810Y-54738D02*
X77021Y-54808D01*
X77021Y-54625D01*
X77119Y-54513D02*
X76824Y-54513D01*
X76964Y-54513D02*
X76964Y-54344D01*
X77119Y-54344D02*
X76824Y-54344D01*
X77007Y-54203D02*
X77007Y-53978D01*
X77119Y-53838D02*
X76824Y-53838D01*
X76852Y-53711D02*
X76838Y-53697D01*
X76824Y-53669D01*
X76824Y-53599D01*
X76838Y-53571D01*
X76852Y-53557D01*
X76880Y-53543D01*
X76908Y-53543D01*
X76950Y-53557D01*
X77119Y-53725D01*
X77119Y-53543D01*
X77091Y-53247D02*
X77105Y-53261D01*
X77119Y-53303D01*
X77119Y-53332D01*
X77105Y-53374D01*
X77077Y-53402D01*
X77049Y-53416D01*
X76992Y-53430D01*
X76950Y-53430D01*
X76894Y-53416D01*
X76866Y-53402D01*
X76838Y-53374D01*
X76824Y-53332D01*
X76824Y-53303D01*
X76838Y-53261D01*
X76852Y-53247D01*
X76922Y-52994D02*
X77119Y-52994D01*
X76810Y-53064D02*
X77021Y-53135D01*
X77021Y-52952D01*
X78824Y-54935D02*
X79035Y-54935D01*
X79077Y-54949D01*
X79105Y-54977D01*
X79119Y-55019D01*
X79119Y-55047D01*
X78922Y-54667D02*
X79119Y-54667D01*
X78810Y-54738D02*
X79021Y-54808D01*
X79021Y-54625D01*
X79119Y-54513D02*
X78824Y-54513D01*
X78964Y-54513D02*
X78964Y-54344D01*
X79119Y-54344D02*
X78824Y-54344D01*
X79007Y-54203D02*
X79007Y-53978D01*
X79119Y-53838D02*
X78824Y-53838D01*
X78852Y-53711D02*
X78838Y-53697D01*
X78824Y-53669D01*
X78824Y-53599D01*
X78838Y-53571D01*
X78852Y-53557D01*
X78880Y-53543D01*
X78908Y-53543D01*
X78950Y-53557D01*
X79119Y-53725D01*
X79119Y-53543D01*
X79091Y-53247D02*
X79105Y-53261D01*
X79119Y-53303D01*
X79119Y-53332D01*
X79105Y-53374D01*
X79077Y-53402D01*
X79049Y-53416D01*
X78992Y-53430D01*
X78950Y-53430D01*
X78894Y-53416D01*
X78866Y-53402D01*
X78838Y-53374D01*
X78824Y-53332D01*
X78824Y-53303D01*
X78838Y-53261D01*
X78852Y-53247D01*
X78852Y-53135D02*
X78838Y-53121D01*
X78824Y-53093D01*
X78824Y-53022D01*
X78838Y-52994D01*
X78852Y-52980D01*
X78880Y-52966D01*
X78908Y-52966D01*
X78950Y-52980D01*
X79119Y-53149D01*
X79119Y-52966D01*
X84994Y-45824D02*
X84994Y-46035D01*
X84980Y-46077D01*
X84952Y-46105D01*
X84910Y-46119D01*
X84882Y-46119D01*
X85261Y-45922D02*
X85261Y-46119D01*
X85191Y-45810D02*
X85121Y-46021D01*
X85303Y-46021D01*
X85416Y-46119D02*
X85416Y-45824D01*
X85416Y-45964D02*
X85585Y-45964D01*
X85585Y-46119D02*
X85585Y-45824D01*
X85725Y-46007D02*
X85950Y-46007D01*
X86260Y-46091D02*
X86246Y-46105D01*
X86203Y-46119D01*
X86175Y-46119D01*
X86133Y-46105D01*
X86105Y-46077D01*
X86091Y-46049D01*
X86077Y-45992D01*
X86077Y-45950D01*
X86091Y-45894D01*
X86105Y-45866D01*
X86133Y-45838D01*
X86175Y-45824D01*
X86203Y-45824D01*
X86246Y-45838D01*
X86260Y-45852D01*
X86372Y-46035D02*
X86513Y-46035D01*
X86344Y-46119D02*
X86442Y-45824D01*
X86541Y-46119D01*
X86639Y-46119D02*
X86639Y-45824D01*
X86808Y-46119D01*
X86808Y-45824D01*
X86935Y-45852D02*
X86949Y-45838D01*
X86977Y-45824D01*
X87047Y-45824D01*
X87075Y-45838D01*
X87089Y-45852D01*
X87103Y-45880D01*
X87103Y-45908D01*
X87089Y-45950D01*
X86920Y-46119D01*
X87103Y-46119D01*
X84994Y-46824D02*
X84994Y-47035D01*
X84980Y-47077D01*
X84952Y-47105D01*
X84910Y-47119D01*
X84882Y-47119D01*
X85261Y-46922D02*
X85261Y-47119D01*
X85191Y-46810D02*
X85121Y-47021D01*
X85303Y-47021D01*
X85416Y-47119D02*
X85416Y-46824D01*
X85416Y-46964D02*
X85585Y-46964D01*
X85585Y-47119D02*
X85585Y-46824D01*
X85725Y-47007D02*
X85950Y-47007D01*
X86260Y-47091D02*
X86246Y-47105D01*
X86203Y-47119D01*
X86175Y-47119D01*
X86133Y-47105D01*
X86105Y-47077D01*
X86091Y-47049D01*
X86077Y-46992D01*
X86077Y-46950D01*
X86091Y-46894D01*
X86105Y-46866D01*
X86133Y-46838D01*
X86175Y-46824D01*
X86203Y-46824D01*
X86246Y-46838D01*
X86260Y-46852D01*
X86372Y-47035D02*
X86513Y-47035D01*
X86344Y-47119D02*
X86442Y-46824D01*
X86541Y-47119D01*
X86639Y-47119D02*
X86639Y-46824D01*
X86808Y-47119D01*
X86808Y-46824D01*
X86920Y-46824D02*
X87103Y-46824D01*
X87005Y-46936D01*
X87047Y-46936D01*
X87075Y-46950D01*
X87089Y-46964D01*
X87103Y-46992D01*
X87103Y-47063D01*
X87089Y-47091D01*
X87075Y-47105D01*
X87047Y-47119D01*
X86963Y-47119D01*
X86935Y-47105D01*
X86920Y-47091D01*
X80963Y-44257D02*
X80963Y-44468D01*
X80949Y-44510D01*
X80920Y-44538D01*
X80878Y-44552D01*
X80850Y-44552D01*
X81230Y-44355D02*
X81230Y-44552D01*
X81160Y-44243D02*
X81089Y-44454D01*
X81272Y-44454D01*
X81384Y-44552D02*
X81384Y-44257D01*
X81384Y-44397D02*
X81553Y-44397D01*
X81553Y-44552D02*
X81553Y-44257D01*
X81694Y-44440D02*
X81919Y-44440D01*
X82228Y-44524D02*
X82214Y-44538D01*
X82172Y-44552D01*
X82144Y-44552D01*
X82102Y-44538D01*
X82073Y-44510D01*
X82059Y-44482D01*
X82045Y-44426D01*
X82045Y-44383D01*
X82059Y-44327D01*
X82073Y-44299D01*
X82102Y-44271D01*
X82144Y-44257D01*
X82172Y-44257D01*
X82214Y-44271D01*
X82228Y-44285D01*
X82341Y-44468D02*
X82481Y-44468D01*
X82312Y-44552D02*
X82411Y-44257D01*
X82509Y-44552D01*
X82608Y-44552D02*
X82608Y-44257D01*
X82776Y-44552D01*
X82776Y-44257D01*
X83072Y-44552D02*
X82903Y-44552D01*
X82987Y-44552D02*
X82987Y-44257D01*
X82959Y-44299D01*
X82931Y-44327D01*
X82903Y-44341D01*
X84994Y-47824D02*
X84994Y-48035D01*
X84980Y-48077D01*
X84952Y-48105D01*
X84910Y-48119D01*
X84882Y-48119D01*
X85261Y-47922D02*
X85261Y-48119D01*
X85191Y-47810D02*
X85121Y-48021D01*
X85303Y-48021D01*
X85416Y-48119D02*
X85416Y-47824D01*
X85416Y-47964D02*
X85585Y-47964D01*
X85585Y-48119D02*
X85585Y-47824D01*
X85725Y-48007D02*
X85950Y-48007D01*
X86260Y-48091D02*
X86246Y-48105D01*
X86203Y-48119D01*
X86175Y-48119D01*
X86133Y-48105D01*
X86105Y-48077D01*
X86091Y-48049D01*
X86077Y-47992D01*
X86077Y-47950D01*
X86091Y-47894D01*
X86105Y-47866D01*
X86133Y-47838D01*
X86175Y-47824D01*
X86203Y-47824D01*
X86246Y-47838D01*
X86260Y-47852D01*
X86372Y-48035D02*
X86513Y-48035D01*
X86344Y-48119D02*
X86442Y-47824D01*
X86541Y-48119D01*
X86639Y-48119D02*
X86639Y-47824D01*
X86808Y-48119D01*
X86808Y-47824D01*
X87075Y-47922D02*
X87075Y-48119D01*
X87005Y-47810D02*
X86935Y-48021D01*
X87117Y-48021D01*
X84994Y-48824D02*
X84994Y-49035D01*
X84980Y-49077D01*
X84952Y-49105D01*
X84910Y-49119D01*
X84882Y-49119D01*
X85261Y-48922D02*
X85261Y-49119D01*
X85191Y-48810D02*
X85121Y-49021D01*
X85303Y-49021D01*
X85416Y-49119D02*
X85416Y-48824D01*
X85416Y-48964D02*
X85585Y-48964D01*
X85585Y-49119D02*
X85585Y-48824D01*
X85725Y-49007D02*
X85950Y-49007D01*
X86260Y-49091D02*
X86246Y-49105D01*
X86203Y-49119D01*
X86175Y-49119D01*
X86133Y-49105D01*
X86105Y-49077D01*
X86091Y-49049D01*
X86077Y-48992D01*
X86077Y-48950D01*
X86091Y-48894D01*
X86105Y-48866D01*
X86133Y-48838D01*
X86175Y-48824D01*
X86203Y-48824D01*
X86246Y-48838D01*
X86260Y-48852D01*
X86372Y-49035D02*
X86513Y-49035D01*
X86344Y-49119D02*
X86442Y-48824D01*
X86541Y-49119D01*
X86639Y-49119D02*
X86639Y-48824D01*
X86808Y-49119D01*
X86808Y-48824D01*
X87089Y-48824D02*
X86949Y-48824D01*
X86935Y-48964D01*
X86949Y-48950D01*
X86977Y-48936D01*
X87047Y-48936D01*
X87075Y-48950D01*
X87089Y-48964D01*
X87103Y-48992D01*
X87103Y-49063D01*
X87089Y-49091D01*
X87075Y-49105D01*
X87047Y-49119D01*
X86977Y-49119D01*
X86949Y-49105D01*
X86935Y-49091D01*
X84994Y-49824D02*
X84994Y-50035D01*
X84980Y-50077D01*
X84952Y-50105D01*
X84910Y-50119D01*
X84882Y-50119D01*
X85261Y-49922D02*
X85261Y-50119D01*
X85191Y-49810D02*
X85121Y-50021D01*
X85303Y-50021D01*
X85416Y-50119D02*
X85416Y-49824D01*
X85416Y-49964D02*
X85585Y-49964D01*
X85585Y-50119D02*
X85585Y-49824D01*
X85725Y-50007D02*
X85950Y-50007D01*
X86260Y-50091D02*
X86246Y-50105D01*
X86203Y-50119D01*
X86175Y-50119D01*
X86133Y-50105D01*
X86105Y-50077D01*
X86091Y-50049D01*
X86077Y-49992D01*
X86077Y-49950D01*
X86091Y-49894D01*
X86105Y-49866D01*
X86133Y-49838D01*
X86175Y-49824D01*
X86203Y-49824D01*
X86246Y-49838D01*
X86260Y-49852D01*
X86372Y-50035D02*
X86513Y-50035D01*
X86344Y-50119D02*
X86442Y-49824D01*
X86541Y-50119D01*
X86639Y-50119D02*
X86639Y-49824D01*
X86808Y-50119D01*
X86808Y-49824D01*
X87075Y-49824D02*
X87019Y-49824D01*
X86991Y-49838D01*
X86977Y-49852D01*
X86949Y-49894D01*
X86935Y-49950D01*
X86935Y-50063D01*
X86949Y-50091D01*
X86963Y-50105D01*
X86991Y-50119D01*
X87047Y-50119D01*
X87075Y-50105D01*
X87089Y-50091D01*
X87103Y-50063D01*
X87103Y-49992D01*
X87089Y-49964D01*
X87075Y-49950D01*
X87047Y-49936D01*
X86991Y-49936D01*
X86963Y-49950D01*
X86949Y-49964D01*
X86935Y-49992D01*
X84994Y-50824D02*
X84994Y-51035D01*
X84980Y-51077D01*
X84952Y-51105D01*
X84910Y-51119D01*
X84882Y-51119D01*
X85261Y-50922D02*
X85261Y-51119D01*
X85191Y-50810D02*
X85121Y-51021D01*
X85303Y-51021D01*
X85416Y-51119D02*
X85416Y-50824D01*
X85416Y-50964D02*
X85585Y-50964D01*
X85585Y-51119D02*
X85585Y-50824D01*
X85725Y-51007D02*
X85950Y-51007D01*
X86260Y-51091D02*
X86246Y-51105D01*
X86203Y-51119D01*
X86175Y-51119D01*
X86133Y-51105D01*
X86105Y-51077D01*
X86091Y-51049D01*
X86077Y-50992D01*
X86077Y-50950D01*
X86091Y-50894D01*
X86105Y-50866D01*
X86133Y-50838D01*
X86175Y-50824D01*
X86203Y-50824D01*
X86246Y-50838D01*
X86260Y-50852D01*
X86372Y-51035D02*
X86513Y-51035D01*
X86344Y-51119D02*
X86442Y-50824D01*
X86541Y-51119D01*
X86639Y-51119D02*
X86639Y-50824D01*
X86808Y-51119D01*
X86808Y-50824D01*
X86920Y-50824D02*
X87117Y-50824D01*
X86991Y-51119D01*
X84994Y-51824D02*
X84994Y-52035D01*
X84980Y-52077D01*
X84952Y-52105D01*
X84910Y-52119D01*
X84882Y-52119D01*
X85261Y-51922D02*
X85261Y-52119D01*
X85191Y-51810D02*
X85121Y-52021D01*
X85303Y-52021D01*
X85416Y-52119D02*
X85416Y-51824D01*
X85416Y-51964D02*
X85585Y-51964D01*
X85585Y-52119D02*
X85585Y-51824D01*
X85725Y-52007D02*
X85950Y-52007D01*
X86260Y-52091D02*
X86246Y-52105D01*
X86203Y-52119D01*
X86175Y-52119D01*
X86133Y-52105D01*
X86105Y-52077D01*
X86091Y-52049D01*
X86077Y-51992D01*
X86077Y-51950D01*
X86091Y-51894D01*
X86105Y-51866D01*
X86133Y-51838D01*
X86175Y-51824D01*
X86203Y-51824D01*
X86246Y-51838D01*
X86260Y-51852D01*
X86372Y-52035D02*
X86513Y-52035D01*
X86344Y-52119D02*
X86442Y-51824D01*
X86541Y-52119D01*
X86639Y-52119D02*
X86639Y-51824D01*
X86808Y-52119D01*
X86808Y-51824D01*
X86991Y-51950D02*
X86963Y-51936D01*
X86949Y-51922D01*
X86935Y-51894D01*
X86935Y-51880D01*
X86949Y-51852D01*
X86963Y-51838D01*
X86991Y-51824D01*
X87047Y-51824D01*
X87075Y-51838D01*
X87089Y-51852D01*
X87103Y-51880D01*
X87103Y-51894D01*
X87089Y-51922D01*
X87075Y-51936D01*
X87047Y-51950D01*
X86991Y-51950D01*
X86963Y-51964D01*
X86949Y-51978D01*
X86935Y-52007D01*
X86935Y-52063D01*
X86949Y-52091D01*
X86963Y-52105D01*
X86991Y-52119D01*
X87047Y-52119D01*
X87075Y-52105D01*
X87089Y-52091D01*
X87103Y-52063D01*
X87103Y-52007D01*
X87089Y-51978D01*
X87075Y-51964D01*
X87047Y-51950D01*
X84994Y-52824D02*
X84994Y-53035D01*
X84980Y-53077D01*
X84952Y-53105D01*
X84910Y-53119D01*
X84882Y-53119D01*
X85261Y-52922D02*
X85261Y-53119D01*
X85191Y-52810D02*
X85121Y-53021D01*
X85303Y-53021D01*
X85416Y-53119D02*
X85416Y-52824D01*
X85416Y-52964D02*
X85585Y-52964D01*
X85585Y-53119D02*
X85585Y-52824D01*
X85725Y-53007D02*
X85950Y-53007D01*
X86260Y-53091D02*
X86246Y-53105D01*
X86203Y-53119D01*
X86175Y-53119D01*
X86133Y-53105D01*
X86105Y-53077D01*
X86091Y-53049D01*
X86077Y-52992D01*
X86077Y-52950D01*
X86091Y-52894D01*
X86105Y-52866D01*
X86133Y-52838D01*
X86175Y-52824D01*
X86203Y-52824D01*
X86246Y-52838D01*
X86260Y-52852D01*
X86372Y-53035D02*
X86513Y-53035D01*
X86344Y-53119D02*
X86442Y-52824D01*
X86541Y-53119D01*
X86639Y-53119D02*
X86639Y-52824D01*
X86808Y-53119D01*
X86808Y-52824D01*
X86963Y-53119D02*
X87019Y-53119D01*
X87047Y-53105D01*
X87061Y-53091D01*
X87089Y-53049D01*
X87103Y-52992D01*
X87103Y-52880D01*
X87089Y-52852D01*
X87075Y-52838D01*
X87047Y-52824D01*
X86991Y-52824D01*
X86963Y-52838D01*
X86949Y-52852D01*
X86935Y-52880D01*
X86935Y-52950D01*
X86949Y-52978D01*
X86963Y-52992D01*
X86991Y-53007D01*
X87047Y-53007D01*
X87075Y-52992D01*
X87089Y-52978D01*
X87103Y-52950D01*
X80980Y-54391D02*
X80980Y-54602D01*
X80965Y-54644D01*
X80937Y-54672D01*
X80895Y-54686D01*
X80867Y-54686D01*
X81247Y-54489D02*
X81247Y-54686D01*
X81176Y-54377D02*
X81106Y-54588D01*
X81289Y-54588D01*
X81401Y-54686D02*
X81401Y-54391D01*
X81401Y-54531D02*
X81570Y-54531D01*
X81570Y-54686D02*
X81570Y-54391D01*
X81711Y-54573D02*
X81936Y-54573D01*
X82245Y-54658D02*
X82231Y-54672D01*
X82189Y-54686D01*
X82161Y-54686D01*
X82118Y-54672D01*
X82090Y-54644D01*
X82076Y-54616D01*
X82062Y-54559D01*
X82062Y-54517D01*
X82076Y-54461D01*
X82090Y-54433D01*
X82118Y-54405D01*
X82161Y-54391D01*
X82189Y-54391D01*
X82231Y-54405D01*
X82245Y-54419D01*
X82357Y-54602D02*
X82498Y-54602D01*
X82329Y-54686D02*
X82428Y-54391D01*
X82526Y-54686D01*
X82625Y-54686D02*
X82625Y-54391D01*
X82793Y-54686D01*
X82793Y-54391D01*
X83089Y-54686D02*
X82920Y-54686D01*
X83004Y-54686D02*
X83004Y-54391D01*
X82976Y-54433D01*
X82948Y-54461D01*
X82920Y-54475D01*
X83271Y-54391D02*
X83300Y-54391D01*
X83328Y-54405D01*
X83342Y-54419D01*
X83356Y-54447D01*
X83370Y-54503D01*
X83370Y-54573D01*
X83356Y-54630D01*
X83342Y-54658D01*
X83328Y-54672D01*
X83300Y-54686D01*
X83271Y-54686D01*
X83243Y-54672D01*
X83229Y-54658D01*
X83215Y-54630D01*
X83201Y-54573D01*
X83201Y-54503D01*
X83215Y-54447D01*
X83229Y-54419D01*
X83243Y-54405D01*
X83271Y-54391D01*
X77824Y-54935D02*
X78035Y-54935D01*
X78077Y-54949D01*
X78105Y-54977D01*
X78119Y-55019D01*
X78119Y-55047D01*
X77922Y-54667D02*
X78119Y-54667D01*
X77810Y-54738D02*
X78021Y-54808D01*
X78021Y-54625D01*
X78119Y-54513D02*
X77824Y-54513D01*
X77964Y-54513D02*
X77964Y-54344D01*
X78119Y-54344D02*
X77824Y-54344D01*
X78007Y-54203D02*
X78007Y-53978D01*
X78119Y-53838D02*
X77824Y-53838D01*
X77852Y-53711D02*
X77838Y-53697D01*
X77824Y-53669D01*
X77824Y-53599D01*
X77838Y-53571D01*
X77852Y-53557D01*
X77880Y-53543D01*
X77908Y-53543D01*
X77950Y-53557D01*
X78119Y-53725D01*
X78119Y-53543D01*
X78091Y-53247D02*
X78105Y-53261D01*
X78119Y-53303D01*
X78119Y-53332D01*
X78105Y-53374D01*
X78077Y-53402D01*
X78049Y-53416D01*
X77992Y-53430D01*
X77950Y-53430D01*
X77894Y-53416D01*
X77866Y-53402D01*
X77838Y-53374D01*
X77824Y-53332D01*
X77824Y-53303D01*
X77838Y-53261D01*
X77852Y-53247D01*
X77824Y-53149D02*
X77824Y-52966D01*
X77936Y-53064D01*
X77936Y-53022D01*
X77950Y-52994D01*
X77964Y-52980D01*
X77992Y-52966D01*
X78063Y-52966D01*
X78091Y-52980D01*
X78105Y-52994D01*
X78119Y-53022D01*
X78119Y-53107D01*
X78105Y-53135D01*
X78091Y-53149D01*
X79824Y-54935D02*
X80035Y-54935D01*
X80077Y-54949D01*
X80105Y-54977D01*
X80119Y-55019D01*
X80119Y-55047D01*
X79922Y-54667D02*
X80119Y-54667D01*
X79810Y-54738D02*
X80021Y-54808D01*
X80021Y-54625D01*
X80119Y-54513D02*
X79824Y-54513D01*
X79964Y-54513D02*
X79964Y-54344D01*
X80119Y-54344D02*
X79824Y-54344D01*
X80007Y-54203D02*
X80007Y-53978D01*
X80119Y-53838D02*
X79824Y-53838D01*
X79852Y-53711D02*
X79838Y-53697D01*
X79824Y-53669D01*
X79824Y-53599D01*
X79838Y-53571D01*
X79852Y-53557D01*
X79880Y-53543D01*
X79908Y-53543D01*
X79950Y-53557D01*
X80119Y-53725D01*
X80119Y-53543D01*
X80091Y-53247D02*
X80105Y-53261D01*
X80119Y-53303D01*
X80119Y-53332D01*
X80105Y-53374D01*
X80077Y-53402D01*
X80049Y-53416D01*
X79992Y-53430D01*
X79950Y-53430D01*
X79894Y-53416D01*
X79866Y-53402D01*
X79838Y-53374D01*
X79824Y-53332D01*
X79824Y-53303D01*
X79838Y-53261D01*
X79852Y-53247D01*
X80119Y-52966D02*
X80119Y-53135D01*
X80119Y-53050D02*
X79824Y-53050D01*
X79866Y-53079D01*
X79894Y-53107D01*
X79908Y-53135D01*
X70631Y-50862D02*
X70913Y-50862D01*
X70969Y-50881D01*
X71006Y-50918D01*
X71025Y-50974D01*
X71025Y-51012D01*
X71025Y-50468D02*
X71025Y-50693D01*
X71025Y-50581D02*
X70631Y-50581D01*
X70688Y-50618D01*
X70725Y-50656D01*
X70744Y-50693D01*
X70631Y-50224D02*
X70631Y-50187D01*
X70650Y-50149D01*
X70669Y-50131D01*
X70706Y-50112D01*
X70781Y-50093D01*
X70875Y-50093D01*
X70950Y-50112D01*
X70988Y-50131D01*
X71006Y-50149D01*
X71025Y-50187D01*
X71025Y-50224D01*
X71006Y-50262D01*
X70988Y-50281D01*
X70950Y-50299D01*
X70875Y-50318D01*
X70781Y-50318D01*
X70706Y-50299D01*
X70669Y-50281D01*
X70650Y-50262D01*
X70631Y-50224D01*
X71025Y-49925D02*
X70631Y-49925D01*
X70819Y-49925D02*
X70819Y-49700D01*
X71025Y-49700D02*
X70631Y-49700D01*
X70875Y-49512D02*
X70875Y-49212D01*
X70650Y-48818D02*
X70631Y-48856D01*
X70631Y-48912D01*
X70650Y-48968D01*
X70688Y-49006D01*
X70725Y-49025D01*
X70800Y-49043D01*
X70856Y-49043D01*
X70931Y-49025D01*
X70969Y-49006D01*
X71006Y-48968D01*
X71025Y-48912D01*
X71025Y-48875D01*
X71006Y-48818D01*
X70988Y-48800D01*
X70856Y-48800D01*
X70856Y-48875D01*
X71025Y-48631D02*
X70631Y-48631D01*
X70631Y-48481D01*
X70650Y-48443D01*
X70669Y-48425D01*
X70706Y-48406D01*
X70763Y-48406D01*
X70800Y-48425D01*
X70819Y-48443D01*
X70838Y-48481D01*
X70838Y-48631D01*
X71025Y-48237D02*
X70631Y-48237D01*
X70631Y-47975D02*
X70631Y-47900D01*
X70650Y-47862D01*
X70688Y-47825D01*
X70763Y-47806D01*
X70894Y-47806D01*
X70969Y-47825D01*
X71006Y-47862D01*
X71025Y-47900D01*
X71025Y-47975D01*
X71006Y-48012D01*
X70969Y-48050D01*
X70894Y-48068D01*
X70763Y-48068D01*
X70688Y-48050D01*
X70650Y-48012D01*
X70631Y-47975D01*
X71025Y-47431D02*
X71025Y-47656D01*
X71025Y-47544D02*
X70631Y-47544D01*
X70688Y-47581D01*
X70725Y-47619D01*
X70744Y-47656D01*
X70198Y-55403D02*
X70057Y-55501D01*
X70198Y-55572D02*
X69902Y-55572D01*
X69902Y-55459D01*
X69917Y-55431D01*
X69931Y-55417D01*
X69959Y-55403D01*
X70001Y-55403D01*
X70029Y-55417D01*
X70043Y-55431D01*
X70057Y-55459D01*
X70057Y-55572D01*
X70001Y-55150D02*
X70198Y-55150D01*
X69888Y-55220D02*
X70099Y-55291D01*
X70099Y-55108D01*
X69725Y-55403D02*
X69585Y-55501D01*
X69725Y-55572D02*
X69430Y-55572D01*
X69430Y-55459D01*
X69444Y-55431D01*
X69458Y-55417D01*
X69486Y-55403D01*
X69528Y-55403D01*
X69557Y-55417D01*
X69571Y-55431D01*
X69585Y-55459D01*
X69585Y-55572D01*
X69430Y-55136D02*
X69430Y-55276D01*
X69571Y-55291D01*
X69557Y-55276D01*
X69543Y-55248D01*
X69543Y-55178D01*
X69557Y-55150D01*
X69571Y-55136D01*
X69599Y-55122D01*
X69669Y-55122D01*
X69697Y-55136D01*
X69711Y-55150D01*
X69725Y-55178D01*
X69725Y-55248D01*
X69711Y-55276D01*
X69697Y-55291D01*
X76654Y-49734D02*
X76514Y-49832D01*
X76654Y-49902D02*
X76359Y-49902D01*
X76359Y-49790D01*
X76373Y-49762D01*
X76387Y-49748D01*
X76415Y-49734D01*
X76458Y-49734D01*
X76486Y-49748D01*
X76500Y-49762D01*
X76514Y-49790D01*
X76514Y-49902D01*
X76654Y-49453D02*
X76654Y-49621D01*
X76654Y-49537D02*
X76359Y-49537D01*
X76401Y-49565D01*
X76429Y-49593D01*
X76444Y-49621D01*
X75147Y-51626D02*
X75133Y-51640D01*
X75091Y-51654D01*
X75063Y-51654D01*
X75021Y-51640D01*
X74992Y-51612D01*
X74978Y-51584D01*
X74964Y-51528D01*
X74964Y-51486D01*
X74978Y-51429D01*
X74992Y-51401D01*
X75021Y-51373D01*
X75063Y-51359D01*
X75091Y-51359D01*
X75133Y-51373D01*
X75147Y-51387D01*
X75316Y-51486D02*
X75288Y-51472D01*
X75274Y-51458D01*
X75260Y-51429D01*
X75260Y-51415D01*
X75274Y-51387D01*
X75288Y-51373D01*
X75316Y-51359D01*
X75372Y-51359D01*
X75400Y-51373D01*
X75414Y-51387D01*
X75428Y-51415D01*
X75428Y-51429D01*
X75414Y-51458D01*
X75400Y-51472D01*
X75372Y-51486D01*
X75316Y-51486D01*
X75288Y-51500D01*
X75274Y-51514D01*
X75260Y-51542D01*
X75260Y-51598D01*
X75274Y-51626D01*
X75288Y-51640D01*
X75316Y-51654D01*
X75372Y-51654D01*
X75400Y-51640D01*
X75414Y-51626D01*
X75428Y-51598D01*
X75428Y-51542D01*
X75414Y-51514D01*
X75400Y-51500D01*
X75372Y-51486D01*
X75108Y-50957D02*
X75094Y-50971D01*
X75052Y-50985D01*
X75023Y-50985D01*
X74981Y-50971D01*
X74953Y-50943D01*
X74939Y-50915D01*
X74925Y-50859D01*
X74925Y-50816D01*
X74939Y-50760D01*
X74953Y-50732D01*
X74981Y-50704D01*
X75023Y-50690D01*
X75052Y-50690D01*
X75094Y-50704D01*
X75108Y-50718D01*
X75206Y-50690D02*
X75403Y-50690D01*
X75276Y-50985D01*
X71508Y-49891D02*
X71522Y-49905D01*
X71536Y-49947D01*
X71536Y-49976D01*
X71522Y-50018D01*
X71494Y-50046D01*
X71466Y-50060D01*
X71410Y-50074D01*
X71368Y-50074D01*
X71311Y-50060D01*
X71283Y-50046D01*
X71255Y-50018D01*
X71241Y-49976D01*
X71241Y-49947D01*
X71255Y-49905D01*
X71269Y-49891D01*
X71241Y-49793D02*
X71241Y-49610D01*
X71354Y-49708D01*
X71354Y-49666D01*
X71368Y-49638D01*
X71382Y-49624D01*
X71410Y-49610D01*
X71480Y-49610D01*
X71508Y-49624D01*
X71522Y-49638D01*
X71536Y-49666D01*
X71536Y-49751D01*
X71522Y-49779D01*
X71508Y-49793D01*
X73927Y-45603D02*
X73913Y-45617D01*
X73870Y-45631D01*
X73842Y-45631D01*
X73800Y-45617D01*
X73772Y-45589D01*
X73758Y-45561D01*
X73744Y-45504D01*
X73744Y-45462D01*
X73758Y-45406D01*
X73772Y-45378D01*
X73800Y-45350D01*
X73842Y-45336D01*
X73870Y-45336D01*
X73913Y-45350D01*
X73927Y-45364D01*
X74194Y-45336D02*
X74053Y-45336D01*
X74039Y-45476D01*
X74053Y-45462D01*
X74081Y-45448D01*
X74152Y-45448D01*
X74180Y-45462D01*
X74194Y-45476D01*
X74208Y-45504D01*
X74208Y-45575D01*
X74194Y-45603D01*
X74180Y-45617D01*
X74152Y-45631D01*
X74081Y-45631D01*
X74053Y-45617D01*
X74039Y-45603D01*
X73927Y-45091D02*
X73913Y-45105D01*
X73870Y-45119D01*
X73842Y-45119D01*
X73800Y-45105D01*
X73772Y-45077D01*
X73758Y-45049D01*
X73744Y-44992D01*
X73744Y-44950D01*
X73758Y-44894D01*
X73772Y-44866D01*
X73800Y-44838D01*
X73842Y-44824D01*
X73870Y-44824D01*
X73913Y-44838D01*
X73927Y-44852D01*
X74180Y-44922D02*
X74180Y-45119D01*
X74109Y-44810D02*
X74039Y-45021D01*
X74222Y-45021D01*
X74360Y-45248D02*
X74346Y-45262D01*
X74303Y-45276D01*
X74275Y-45276D01*
X74233Y-45262D01*
X74205Y-45234D01*
X74191Y-45206D01*
X74177Y-45150D01*
X74177Y-45108D01*
X74191Y-45052D01*
X74205Y-45023D01*
X74233Y-44995D01*
X74275Y-44981D01*
X74303Y-44981D01*
X74346Y-44995D01*
X74360Y-45009D01*
X74613Y-44981D02*
X74557Y-44981D01*
X74528Y-44995D01*
X74514Y-45009D01*
X74486Y-45052D01*
X74472Y-45108D01*
X74472Y-45220D01*
X74486Y-45248D01*
X74500Y-45262D01*
X74528Y-45276D01*
X74585Y-45276D01*
X74613Y-45262D01*
X74627Y-45248D01*
X74641Y-45220D01*
X74641Y-45150D01*
X74627Y-45122D01*
X74613Y-45108D01*
X74585Y-45094D01*
X74528Y-45094D01*
X74500Y-45108D01*
X74486Y-45122D01*
X74472Y-45150D01*
X76941Y-46410D02*
X76955Y-46424D01*
X76969Y-46466D01*
X76969Y-46494D01*
X76955Y-46536D01*
X76927Y-46564D01*
X76899Y-46579D01*
X76843Y-46593D01*
X76801Y-46593D01*
X76744Y-46579D01*
X76716Y-46564D01*
X76688Y-46536D01*
X76674Y-46494D01*
X76674Y-46466D01*
X76688Y-46424D01*
X76702Y-46410D01*
X76969Y-46129D02*
X76969Y-46297D01*
X76969Y-46213D02*
X76674Y-46213D01*
X76716Y-46241D01*
X76744Y-46269D01*
X76758Y-46297D01*
X76674Y-45946D02*
X76674Y-45918D01*
X76688Y-45890D01*
X76702Y-45875D01*
X76730Y-45861D01*
X76787Y-45847D01*
X76857Y-45847D01*
X76913Y-45861D01*
X76941Y-45875D01*
X76955Y-45890D01*
X76969Y-45918D01*
X76969Y-45946D01*
X76955Y-45974D01*
X76941Y-45988D01*
X76913Y-46002D01*
X76857Y-46016D01*
X76787Y-46016D01*
X76730Y-46002D01*
X76702Y-45988D01*
X76688Y-45974D01*
X76674Y-45946D01*
X76548Y-46427D02*
X76562Y-46441D01*
X76576Y-46483D01*
X76576Y-46511D01*
X76562Y-46553D01*
X76534Y-46581D01*
X76505Y-46595D01*
X76449Y-46609D01*
X76407Y-46609D01*
X76351Y-46595D01*
X76323Y-46581D01*
X76294Y-46553D01*
X76280Y-46511D01*
X76280Y-46483D01*
X76294Y-46441D01*
X76309Y-46427D01*
X76576Y-46286D02*
X76576Y-46230D01*
X76562Y-46202D01*
X76548Y-46188D01*
X76505Y-46160D01*
X76449Y-46145D01*
X76337Y-46145D01*
X76309Y-46160D01*
X76294Y-46174D01*
X76280Y-46202D01*
X76280Y-46258D01*
X76294Y-46286D01*
X76309Y-46300D01*
X76337Y-46314D01*
X76407Y-46314D01*
X76435Y-46300D01*
X76449Y-46286D01*
X76463Y-46258D01*
X76463Y-46202D01*
X76449Y-46174D01*
X76435Y-46160D01*
X76407Y-46145D01*
X81998Y-55631D02*
X81899Y-55490D01*
X81829Y-55631D02*
X81829Y-55336D01*
X81941Y-55336D01*
X81969Y-55350D01*
X81983Y-55364D01*
X81998Y-55392D01*
X81998Y-55434D01*
X81983Y-55462D01*
X81969Y-55476D01*
X81941Y-55490D01*
X81829Y-55490D01*
X82096Y-55336D02*
X82279Y-55336D01*
X82180Y-55448D01*
X82223Y-55448D01*
X82251Y-55462D01*
X82265Y-55476D01*
X82279Y-55504D01*
X82279Y-55575D01*
X82265Y-55603D01*
X82251Y-55617D01*
X82223Y-55631D01*
X82138Y-55631D01*
X82110Y-55617D01*
X82096Y-55603D01*
X80985Y-43592D02*
X80845Y-43690D01*
X80985Y-43761D02*
X80690Y-43761D01*
X80690Y-43648D01*
X80704Y-43620D01*
X80718Y-43606D01*
X80746Y-43592D01*
X80788Y-43592D01*
X80816Y-43606D01*
X80830Y-43620D01*
X80845Y-43648D01*
X80845Y-43761D01*
X80718Y-43480D02*
X80704Y-43465D01*
X80690Y-43437D01*
X80690Y-43367D01*
X80704Y-43339D01*
X80718Y-43325D01*
X80746Y-43311D01*
X80774Y-43311D01*
X80816Y-43325D01*
X80985Y-43494D01*
X80985Y-43311D01*
X78297Y-46351D02*
X78283Y-46365D01*
X78241Y-46379D01*
X78212Y-46379D01*
X78170Y-46365D01*
X78142Y-46337D01*
X78128Y-46309D01*
X78114Y-46252D01*
X78114Y-46210D01*
X78128Y-46154D01*
X78142Y-46126D01*
X78170Y-46098D01*
X78212Y-46084D01*
X78241Y-46084D01*
X78283Y-46098D01*
X78297Y-46112D01*
X78409Y-46112D02*
X78423Y-46098D01*
X78451Y-46084D01*
X78522Y-46084D01*
X78550Y-46098D01*
X78564Y-46112D01*
X78578Y-46140D01*
X78578Y-46168D01*
X78564Y-46210D01*
X78395Y-46379D01*
X78578Y-46379D01*
X78297Y-46863D02*
X78283Y-46877D01*
X78241Y-46891D01*
X78212Y-46891D01*
X78170Y-46877D01*
X78142Y-46848D01*
X78128Y-46820D01*
X78114Y-46764D01*
X78114Y-46722D01*
X78128Y-46666D01*
X78142Y-46638D01*
X78170Y-46609D01*
X78212Y-46595D01*
X78241Y-46595D01*
X78283Y-46609D01*
X78297Y-46624D01*
X78578Y-46891D02*
X78409Y-46891D01*
X78494Y-46891D02*
X78494Y-46595D01*
X78465Y-46638D01*
X78437Y-46666D01*
X78409Y-46680D01*
X76075Y-52552D02*
X76089Y-52566D01*
X76103Y-52608D01*
X76103Y-52636D01*
X76089Y-52678D01*
X76061Y-52706D01*
X76033Y-52720D01*
X75977Y-52734D01*
X75935Y-52734D01*
X75878Y-52720D01*
X75850Y-52706D01*
X75822Y-52678D01*
X75808Y-52636D01*
X75808Y-52608D01*
X75822Y-52566D01*
X75836Y-52552D01*
X76103Y-52270D02*
X76103Y-52439D01*
X76103Y-52355D02*
X75808Y-52355D01*
X75850Y-52383D01*
X75878Y-52411D01*
X75892Y-52439D01*
X76103Y-51989D02*
X76103Y-52158D01*
X76103Y-52073D02*
X75808Y-52073D01*
X75850Y-52102D01*
X75878Y-52130D01*
X75892Y-52158D01*
X76392Y-54161D02*
X76392Y-53712D01*
X76616Y-53937D02*
X76167Y-53937D01*
M02*
