M48
;DRILL file {Pcbnew (25-Oct-2014 BZR 4029)-stable} date Sun 04 Oct 2015 01:48:50 PM EDT
;FORMAT={-:-/ absolute / inch / decimal}
FMAT,2
INCH,TZ
T1C0.024
T2C0.025
%
G90
G05
M72
T1
X6.95Y-4.
X6.9685Y-4.4319
X6.9685Y-4.5319
X6.9685Y-4.6319
X6.9685Y-4.7319
X6.9685Y-4.8319
X6.9685Y-4.9319
X6.9685Y-5.0319
X6.9685Y-5.1319
X6.9685Y-5.2319
X6.9685Y-5.3319
X7.05Y-4.
X7.1Y-5.55
X7.1Y-5.65
X7.1Y-5.75
X7.1Y-5.85
X7.15Y-4.
X7.2Y-5.55
X7.2Y-5.65
X7.2Y-5.75
X7.2Y-5.85
X7.25Y-4.
X7.3Y-5.55
X7.3Y-5.65
X7.3Y-5.75
X7.3Y-5.85
X7.35Y-4.
X7.4Y-5.55
X7.4Y-5.65
X7.4Y-5.75
X7.4Y-5.85
X7.45Y-4.
X7.5Y-5.55
X7.5Y-5.65
X7.5Y-5.75
X7.5Y-5.85
X7.6Y-5.55
X7.6Y-5.65
X7.6Y-5.75
X7.6Y-5.85
X7.7Y-5.55
X7.7Y-5.65
X7.7Y-5.75
X7.7Y-5.85
X7.8Y-5.55
X7.8Y-5.65
X7.8Y-5.75
X7.8Y-5.85
X7.9Y-5.55
X7.9Y-5.65
X7.9Y-5.75
X7.9Y-5.85
X8.Y-5.55
X8.Y-5.65
X8.Y-5.75
X8.Y-5.85
X8.05Y-4.5
X8.05Y-4.6
X8.05Y-4.7
X8.05Y-4.8
X8.05Y-4.9
X8.05Y-5.
X8.05Y-5.1
X8.05Y-5.2
X8.05Y-5.3
X8.05Y-5.4
X8.15Y-4.5
X8.15Y-4.6
X8.15Y-4.7
X8.15Y-4.8
X8.15Y-4.9
X8.15Y-5.
X8.15Y-5.1
X8.15Y-5.2
X8.15Y-5.3
X8.15Y-5.4
X8.25Y-4.5
X8.25Y-4.6
X8.25Y-4.7
X8.25Y-4.8
X8.25Y-4.9
X8.25Y-5.
X8.25Y-5.1
X8.25Y-5.2
X8.25Y-5.3
X8.25Y-5.4
X8.35Y-4.5
X8.35Y-4.6
X8.35Y-4.7
X8.35Y-4.8
X8.35Y-4.9
X8.35Y-5.
X8.35Y-5.1
X8.35Y-5.2
X8.35Y-5.3
X8.35Y-5.4
T2
X7.0394Y-4.0787
X7.0551Y-4.2756
X7.2362Y-5.0551
X7.2756Y-5.0945
X7.3622Y-4.189
X7.3701Y-4.2992
X7.3701Y-4.4252
X7.3701Y-4.9685
X7.4094Y-5.1181
X7.4252Y-4.8031
X7.4567Y-4.2992
X7.4961Y-4.7638
X7.5039Y-4.8661
X7.5197Y-4.9134
X7.5354Y-4.2047
X7.5354Y-4.8031
X7.5906Y-4.6142
X7.6693Y-4.3858
X7.7402Y-4.4409
X7.7638Y-4.189
X7.8268Y-4.4331
X7.8976Y-4.1969
X7.937Y-4.8031
X7.9528Y-5.0039
X7.9685Y-4.252
X7.9685Y-4.3386
X7.9764Y-4.063
X8.Y-4.3937
X8.0787Y-4.1417
X8.0945Y-4.7323
X8.2205Y-4.0315
T0
M30
